<mxfile host="Electron" modified="2023-05-10T09:33:40.185Z" agent="Mozilla/5.0 (Windows NT 10.0; Win64; x64) AppleWebKit/537.36 (KHTML, like Gecko) draw.io/21.2.8 Chrome/112.0.5615.165 Electron/24.2.0 Safari/537.36" etag="Uc2GKEbCxC0AAs-X8Zt5" version="21.2.8" type="device">
  <diagram name="Pagina-1" id="Kg9cFJqDVhZBPavR2lLv">
    <mxGraphModel dx="1434" dy="836" grid="1" gridSize="10" guides="1" tooltips="1" connect="1" arrows="1" fold="1" page="1" pageScale="1" pageWidth="827" pageHeight="1169" math="0" shadow="0">
      <root>
        <mxCell id="0" />
        <mxCell id="1" parent="0" />
        <mxCell id="VtB4CXar6x7eSkOAjALX-3" value="Document DB&lt;br&gt;Replica #3" style="shape=cylinder3;whiteSpace=wrap;html=1;boundedLbl=1;backgroundOutline=1;size=15;" parent="1" vertex="1">
          <mxGeometry x="540.59" y="470.67" width="75" height="100" as="geometry" />
        </mxCell>
        <mxCell id="VtB4CXar6x7eSkOAjALX-4" value="" style="rounded=0;whiteSpace=wrap;html=1;" parent="1" vertex="1">
          <mxGeometry x="243.48" y="270.66999999999996" width="120" height="239.33" as="geometry" />
        </mxCell>
        <mxCell id="VtB4CXar6x7eSkOAjALX-8" value="" style="shape=image;verticalLabelPosition=bottom;labelBackgroundColor=default;verticalAlign=top;aspect=fixed;imageAspect=0;image=data:image/png,iVBORw0KGgoAAAANSUhEUgAAAOwAAACnCAYAAAASTLC7AAAAAXNSR0IArs4c6QAAAARnQU1BAACxjwv8YQUAAAAJcEhZcwAAFxEAABcRAcom8z8AACYvSURBVHhe7V0JmBTVtZ5epmemZ1+Yme5hFxTQKCoGRGUTIyoIbgHBDUVJnlFxmdGnRlETo4iiMYhrUGbwGTUBNUSjUVHjkmgcwLhlxhhjDImGjIoREe169TdTk1u3TnVVdS1d1X3P9/0fTPet7fb571nuubeKhBSU1MgYvPO/QlwS9LEQIY7ILBmSjGUyhGI5KxgI0a89vf8XIsS2dMoAYRVAwYTYEwx8ClGVfl0kQ4gQW6JYVx5QtFNkCLEmFFHZPhUixJaskcErFgtY30kyhBgL+uldGVQ/KhAhh5CsBcpjpGAKhJusL+jHlTKofuMhBj8hWYvKHY5EwlvZvwnA2orEiVrMWFUWi2UIEZKVQHn6lGnuzFEvsn9ngEieZI5VWfAhB/4WIiQrUSnTcz+b+yr7twGellGo8Rie2yj2VzCrojy2g/lbJJ6EZCVQOtY69Pz7D2d9lmyq2Mx8ZgQcP1pGIQme17QLPGPKkD0nfnNAivu8UAc6ITYEitenRBXx4j9J3W3S8TNGdrOfmwBIWyiJFEtkldGZ6m6bu+iUMfznhTbICXFAEIf2KdH+eyd/DcL+YvnM7eznFpDvpMXzGcWrPJal3mlbsfjsA/jPRQ5AiGVRTUNceMbYR0DYnlfPYRXLKvKVtLCIVskq7bFbv/myhe1cs+Io/juRKRZiWVRJkxVXHvIsCAuM3KX+b+x3FgClzrdpn6zIKuPdNx879VT059Or5/DfiUyxEMuiisXeeOy0lxTC3nTZwX9hv7MInDdfBIOPlZiVxeJUV+sD6E/CaxGEFWJZVEqU6m59RyGsTbcYyBeFNDt1o8HKJUccl+pq+0ynP2GxhQgxLbAcfQoUiYT+KluDHQphgcMmDM3WsigIeiZUlZSziDXyAHg125/c94KwQiwJyNSnQJXlsd+zygV0PnIKq2DZIMiucbZxaxpNDeVzUt1tH7H9WVNVwrcTc7FCTAuWzfUpz5AB1Y+yyqXgwDEtf2fbZYGgLs/L2hWW8bRsXW/m+3L0yEa+XdA9ECEeisrdGzu6+TFewQAHrCwWCzgpsEoAXHoWyudOCM6XrXXtWXz2gfOpvpw0dgDftlCKTYQ4ICrCHnrQ4IcpJQMmfnPAP9m2WQAE0BOQDJYGq4ZwTyimx/ww6pQBEB6uNQiUDYmU43AOnA+WE3OgAKw/SMPfn2pBhBUkmyqWydb1caofCcKK4gkhpkVVNHHirFFrKCVTMLil6t9se4sACVlCKkTM1oq5BdyPnfvqfO/ZhUup/gNmHTKcby8IK8S0qGK080/bby2lZAowLdFQU/Ype4yAGvNmjlggW1dVpp3FKcfswR8jqp2EmBZYkj7lue6iyRktLOBAPJu3qK8tuzPV1baZ6jcFxAIAeDlChJgSFWFvvmzqk5SS8XiqY85X7HFuoLQkum1QS/W/9hrZ76Mp4wdtmXPEiK0L5+z1yTf3SnxBtaew96hGCQX3wNwjR23bf3Ti8313b+rpVx//D9XeDuqqSm9Pdbe9SfUXC4Kw+VJcIsQDURVFrF42nZzWoUAUsltCSSzy+eCW6i0Hjx/Yc+mZ+29fueTwdK0tLDhcb+qawOuPnSbtMrCGPCePldceRp6DxbvPLEw/C64PYh+wb8v2pobybdT59FBbVfrAllfOfps6Pw+CsIjlhQgxJVkTFgC5dh1S+xl7DgqwlrCSIKYZUhqBUHoNWpoqpO6nziCPNwuQGUTG9UbtUk9a9t2G1t2/5ZWz/kkdT4FYYgcvR4gQU2KLsAqg1I2MmzkgUfnhMdN23YLPQU7qGDt4sn22FC8r7rtvCsdPH0keaxewxiDdgWP677j2wkmdmRJMFAjC4jcQIsSUqAi76vrDH6KUzCygzG4QlMLsI0awSq/BLVd+izwu1yAIi+kjIUJMiYqw7dcdYZgl9gs6bpjOKr0KdTWl0h8fPZU8LtcQhBViR9QWdskRP6eUzI/4ZMM5qL5iFb8PKE6gjvEDll06hb9fQVghpkVF2B9fNpUsp/MrrrtoMqv4fbjh4ilkez9AEFaIHVHNw/7w/An3UUrmV7z1xAJp1yF1rPJL8dKo9PLak8j2foAgrBA7gjnAPuUxqiX2I84/bT9W+aVDJwwh2/kFgrC5FawyQS2oUiwOFxP/V1aD+H3plIqwRx2662pKyfyM9auPl6oqYn3PIHsJZDu/QBA2d4LlYCqFzwAQ2I/kVa3WGb9Py72UkrmBba+fJz3wk5nSCTNHSeNGJ6XmfuVSNBKWBvevThfIW5kemnfkqPT9h0Ih6bn75pJt/AKCsBjkhZgQZQG0sg4ThFKQae0mBMeq4j+TwI+DpWVG5/dKcC999zcwWbWOUjInsePtC6QftU6UGmrL2H7RAORdcZW5udT/u3FG+hhkjanv/QRBWGMBOeCeKguiFfeV7zgK6ExYRyg21i0qZM56cTMDnDPXonqOmqrS31BK5hTe/+13NQu4Qcxhg2qlqeMHpadj+D2P2q+fTp6Lx4ihddKlZ+5PfucnCMLSAqupxJZ8B/kNuSQuBqG+e4nFws9TSuYE3nx8QdrtVa4FC4siApCYbwuSgshoVxGPSVs3LdK04XHz5VM9q7KyA4Kw0NGCFDYBxHeK34F7zkWMq3qRs4x3U12t2yhFswMU0bNkhTUEgam2CkBApf0dV08j27BATEx97jcQlU4Ft1oHRMW+PGbdXAVor2R2AZAG/1o9j5Pw2tpikGCv35Pqbn2RUrRs8eenF0pHTh3Wd43jZ4yUOh82toTvrl8oDW6pTh9z9KG7km2CCIKwBbWAHQpnxqJiFFPiULjLILkZQbwKK4QBQYmDqfM7CTwP7tELQT+orv+Pl850tDyRXQqH+BVJJ6odBXb/o49ePotsEzQQW8T4IZfhukDR8KB61hCfg6QgqNMZWa8ssFcusuq6d/5ommNTO3B7lVgUySQqXs0EZImV+/L7dI1ZEJuwwRDktcD6wHXlHxwAmZDVddNCeekye7Gjnqov50wfcT+laNmAVU6z2V4WT6ya3Xc8pm6oNl4A8fEjdxwjXXXuQdKx03ZLx+BsTI4YnTqOArHNaVA3WTclemQFiWBxvZjf9JKwgNsjsKr4Y+zoZAelaNkACt6/uRKLvcnvjfDympP67gvZVaqNm8DuGCjsQKaa7SMeVgiLwhDueIRceSmZyOrlQ3sRx/JwcxTGQNd3rYqyYnL3fzvY/OKZ5OdGABGU+0KyhmrjBjA9RFjCNEBeVGZNmzAkHY8CVuJrgrBeGBnPRY+ssA5ePzCfWfUKbg1KsODsdVyZ2skGuSAsvAIl7gbwfxR1YGrptV/ZXxSvnJdB3hFWj6xQNLPZXqclV6R1Izbn52I/nTFl2AddT55OKpyXgKVT7sttlxjZ6znTR7L9IH3n+NGWE2WZwD5PL6DXeSUgJEVWP6TCQR5V/OcBkFBzepDSTO3EisM7YFng7uWSuGzSCRu6UW2cAmJV5VpIKL344AlkOzsgtoaF/uSVqOKrXviBrKzA2roZ1+JHhTfhhnVVRJVIa6gpfV/5f0JW3rNP3lf67c/mkUroJkBS5T6QpaXaOIGLFo7tuw4ywNnG3EYgyhL9psu2hHfVgvCAIC+mYkAyyjMwAojDrqV1k6SsqDyFinjxW+zfQLKpQlo0f4z0wv3eEZfdAgYZY6qNXeC8SswKy+qkC8yDKJrwYtrOE4Gbxlcw4e9cxax2BeQDMAixUEiJ58rls6k8mVBRke7m4JimOe/U/VxxGXmwMaVbtcLI+CrXePSnx5FtnAJRNAEdyAvhM5cAlFuIOwLFUfV3U3084+sqBiarpPMX7Cf97ucnksrpBPbYtSF9LfxLfW8XWECvPA+mcag2TqKlqTKlXK8XeZEhBjH54oS88vV9KJrE0+CWqr8r/4dVxfwhlBpTHHDtvnfiPumpFpQPumH9EEdWV+5cGztv5iiyjV0oFrwkFkknhKg2dvHpxkXpKq2jtNb1LzLyQvjMK2LBoLrCQRLVIDl57IAOM+tQ3cJTHXP67uXKRQeSbewASbSqip0DwklH7UG2sQO8tGvJhZOkCTp7J8tAriLwgniOf7C88fN9LqpMd3Vl7PFUV5vplzwZgc34WgUWu8PCOwl2ixor5zcqs4RngBVKpSVR1TMQQNgXeOFj17wYhQIifN/3pLrbMr6R3QrsENZPAGmp5+OB+WtMRSHTveDbe0p11aX8uQJviOD28lMhwrq6L+h39PNqGWzfS1eec8AqShmzATKwiIHNYvTIxjTGfKOZ/N4ODhzT0nf+caMTZBs9IO6lns8IVRWxr7n+DXyYx2cqEVOJ2NUdQegBi4qpMj7B14fmhrhjFtYK2BI+uJdUGztgrb1bySYWREki+j3wAveXfSiRGXZOMPAh+44+5ee3M6FH6m59hVJCN8Fuo+IGodjzW1kaly2ICqfAx6+Yj+JHejHvak8Ukma0okaYMn7gG1jB4la5HgXEibg2dqmw86Z2PbAFDNT3TuPIqcP4+dfA6zbWe7IPlBcuQ45EsaRWSNrTUBN+7riDy9bx3w1qqX4Z/zY1lEvzj/2G9OBPZkqf/9G9HQrddocBpUQQAwL1vZPAgFOpjl/xuwReUFPZ90PJEO6wNYE1VWJSth/10BMJFz03cnB05fIL6jqeWdG8aWNHUgKS/SKqtsXR8Jvs38DkcQOl6y6alJ5rpJTUDtx2hwF2Yzg3LDgLYoVOXsx88PFrXu9z45AoLi/6zow17ampDD81+5D4vTsJmuhRSMriqoU11LF9wGoWKDyyvm4UVrjtDgPsoACLTrVxCkTBf17MfIjpHPNixeXtqakIdZ51bOV9rBXNhN/e3qw5T21V6UbsuOB2goa1RiAV1cYJsNdxY50tFsNjl0e8OqS4+L+7V/QiL+qHecLm3bYZDgiIimokQ6LC3T38gNI1ZknKg3eLZfSkulqfoZTTSWCeU7mmm4MDLLdyHVhAqo1VoJ4aO0NiITy8A+X8HPLCHQY52YfKi6DcQQFRDWPTUKjoY8Skt15Y95Ceu2sWlFv8wv3zrqMU1Slgh0LlWsjiUm2chBuJpyfb50j/+91x0jf3TPQ9C4e88ByhkOxDiQzxzvgUcbwRUb+uqghthMv77Irm9yjyZQPKLe7fXPHLVFdbD6WoToCdagF5qTZOgs1Gu+EWr7n1aCTs2OkcGCL8roEXvsIJbl+hipLtNdqtom+a4LLTakjS2cWRE+L8NXukrlbHNhlnwZIH5YJUGzeAa+Gabkzv5Gt2GMITNm8ezIKAqGYSSZpF5d8aW0YSzi7uuqRedR3ghKN2X0Epp13wmVQQyCso13R6zjefd5fgXeJCIqwpooaKirZTnwOV8bC0+sp+JOnsIlEfURWsRyPh11Jdrc9RCpot4P6yxMklnEp04TzxsmL2N4PHlDfCr4HNu60fCVFc30xE/SIUKtpBfK7B946rJAlnF1Ty6Zl75/yAUlI7IGpt0+BXyjgBxQ1mgQHDyX2Pzz55X35lTuBrh1nhs8T5nHQCUeEaZYpRt4dDRV8Qn+tizIiY9MrdCZJ0dkDOydaUPihb2Q2UotoB4lgQir0WyOVktROSS7w1xzWdnELqta5fMtfAoJxX05Q8YfPKfWAk4/QMpmXqq8MvDmiKZtz8TA83X1BHks4uiOST9PwDJyyjlNUJUNbWbnyJeVc+pgRx3cgOs1VUvci7EA9Wh31AjEj5JEbzqOnC+4eX9HsdBGlf3CDNJEhihLmHlpOEswvKyib6lT+U6m59h1JYJwCCUYmobAhGWVWc242yR5yzXG1dAfz+eSX5SljE5hhd2WdTAWWDqy5veIsnCdzbi06qloYNKCaPozA0GZUe/3GT6jxmgcqmTIiXhvjrfV1TWbJV2ecoE7LdoQGAm4xzsNeGm2zGhcWxvFXN1sXGdqj8c1HgBwYZ/5EBj9EIx8oIlOCm2QeFsgdVDDO/5WWhrrsuaXiKIg+Ley5vkGYcZN7aXnF6dnOy1LmcAkhCkcAKCDczY60x3GqWPPg/3OpsrSqsNHttFxC4NwBAwQP9AL0C94cffDQY/42SL5+9tZkkD4/fr0xIbSdWS0NbDHfhkw7bP7s5WepcTsEJwgKwmDgXf258zrahrKrdyilBWK3wC9iDFqjDqlp6IVbbCdUkefRw9/cbpOkH/HdrTgo1FWHpvh9Yn5N99MYmQzz4o0apvjqsis8aassef+uJBa/DRdWD0ztV6CWlAN6qoq0TsSqWEVLPpmDjuvlSQ10Znyw8QwYSqmZQISNQEtQ4FveNwUbX/dXDqCHF0pprG0kC6eF3dyWk1nlV0hA5XqXOCZwzu4o81glQ87I/u+nIpZSSuwkqKcUCUzWs5XUbhMteCLUEGqUHGfwsRtlffh8fDU6dUUESwwg/vbRBOnw8bW3H7l4ida6ij3MCTXURVTFHKFS0PtXV9hqlyG6DKP9Lk9WNDLAecK2Wpsq8zwxTwr+iw6+7TmRMKmE+dfYh8fW3XVQvzZoYl0pjmgxrH2Tll+68uJ4khhFevDMhnT+3ShrUrLW2t7Rld04zuPHcOs31zjllzA2prtavKIV2A1SsygJxK1xV6lincfH/7I9MMHv9gimt5RNPfnzwjEml4QOLn3vutuaPeQWfNk4/9gSp2fZWAcLz5z/xMGuWe8zImCWUlYR472HHHsPrN8O68XC6qJ6fV1ViVSSW+KSUU9fW2wQd1wuHQ3wZIrwuGB8rmCYjcMLXFMOC+cUtzmhV9eZTWVxzZq00aR/N6xqkaCQkXfu9WvIYs3j+9mbp3DlV0oCmndZ2+IBi6cmfmMtCA/w9OQkoNUUCq6CsKkjDx6p8UgrXt1veKLLE+sJbLz+4xRhIyFhVcX95q6qHl+5KSIsX1KTjTPY8B40uleRzkMdYwdoljdKew2Lpc8KyU20osPfiNOwSFjEiNa+aKQMMEvPW1k51kyCsvuDG2QeBu5BLwf3oWtVHlja+TxHACOtvaZYuPKla2mv4TnIBF55obZpHD6/ek5TOk2NbuMnU9xSoaRwj3H3Zzpcts4hEQi9veGT+WnbKw860jp5VNRuf8tYWAPmotpnAT+usu+tYvFOWX6BhZRqHR+CmdRSB68l2AoAH8lpwH3plhdthVVFjSym/FaSLIk6oTq9pbagOp+t2qXbZ4JfXW5syygZUAuqAffrflOpu20gpvlWw0yXZzquC9CA5e4+wtlRbM8D19x7ZuIU9nwyESwUrfAGC1+5CxsRSc31k+wt3OLuUDUT97tGVaVDf+xmT99XG5R3XH/GDVFdrilJ4q4Bra8Wq6oG1tnYqny7+7rjP2GeVAV3xS64lJ8JvGQOX1AtREkvstUm4NW3ipIX1Crhnfm5Wxruylf0JpfBWkW3cSQHnysYlVgBrXVqiWf6YN1u/2BGvk0+6iSUKC48KniV0E4hp+T6qrSl90ou9jL0CyC5be+EK6whv6UBgtwQuMJlY0gPKCinFLWQgFuf7ae6RIy9NdbfuoAgQNFx65v78vloF7wqzQiWf3LCyZBYY0zVHTSjrPH1mpVRVrnnVguwWhaT7f+jOxmdBBooquL7qWb1s+rWprrbPKRIEBde0Tvw391yAcIU5wcZVbAc5aWV141WsVV19Rb8PFCVEUcO+IzSKKF1yijPTMPkExLNy//GVPz3vPbPwGooIQcCdV0/7vCQW+Zx7JuEKEwJSuRHL4rzklE2yIdJFFUH84ppGafbUcljevrZY6sa3E6D3Mw6HQhvlePYmihB+xs4kU4RPMglXOIPwhRR2M8ZILvGDQBqT9i591ShLe+n86nTZH9r3b4xKTy0PXlbXC8ybVq7p37KSyAtyPNtOEcOPwDRSXXXpx9xzQP+CvBuK60JZ2Wz3eEXMQcarp86oMP2WN+ybpMRqWJFDtRGg52ebG8rXyvHsOoogfgIywoNaqv7F3T90R8StJgRuMNtxgNXqJ95SpxEOF3167Zm1/6QUzggo/0NSivpOYCeIJJQ0YkjduTJpN1NE8QNA1sn7D+TJCvihrj0wwltZKzXGfPIqDSSX1t3Q+AmlaGbxzArzLvH1Z9d+hvlK6rt8xt67xjRvL5g8bsDyVHfbUxRhco0ZU3b5gL9fGSLJZFH46ifAjHtCZoJ3Gxh90+wKG0fQnsSAkx50YtHQ5zMOLM1q0UAQgbzA8AHRr9j+B/o3V3xfJu2bFGlyhWvbJn7C36cMQdYshc/sIqbQy9bhc3JTtKn7laY37PYS2NKUvQe44lS7fIUeaUfsUndrqrv1AYo8XmPujFFUMhI6JzLCWQqVgKJcY12yHndw/E1KodzGSYeVr2Xvo6Yi7NjLl4MCkHZoS1TzFr5+9fFfyJZ2FUUiL4CY9dCDhrzD35cMlKoKstoUlBHyHcu6xrpktZIJdhojBkUfZu8lF1beDwBp+9VGNKQtLYm8mOpqu40ilJsAWcd8I/Fn/n5kwDDkYllnXgrlGqNzQVZNQQSmbS46qSqnFq04Gvole09XnlH9GtWuEIDEW3lpSOMey7/TetnS3kERyw3ozLMC0KeC2PXQK9FzjTVkDYeKPrnklOqPKMXxCs+saN4k34tq/rcQs8UsUIdNlDACne1Lp18tx7VvUCRzCq+sOenjmsoSqj5YzLW6JJRrrIKdOVYnsfyCug72vmLFoc1Uu0KDXiIKmDSu/y2ytV1Lkc0uHv3psR/EiiP81qQAYlbhBrsouq/G8AtZgQP3it3F3tuQlkjOYmk/gqqIAirKi38tx7VLUl2t2yjiZYMrzjngr8XFYX7HCAAemkgwuSwYDVWuJgCyokiBUo5cQI7Xfs3eX64y1X4GtsZh+4hB591LDrtCJq6tPaKQXDpm2m5vEOcHMPALsnogpIVFFhLuFqUY3iOBAUUVb/vF8vsN1IZuCnYZUH2lHNe+SJHRCE+smr21Ml78EXVeGSiKEGT1QMjaYAWoYaWUwms8fUuzKjsMFHrCKROQjCorCfHvqUkjHA5tXHXd4T+Uifs8RUwesKpHT9v1j5FIeCtxPgykXm/uV7CSkawKEBtRSuEl+IRTaSwkrKsB4B0NSUT5BeN9aG4oX/nCAyfcKBP3HYqowLo7jvlTVXmMKuAHQFZRyO+RoKNVcWtJcWjb3sOKb2I/U4DXI1JK4RWuOqPmAfZ+6qvDf6PaCWihl4xSsNuQup+lulpvTXW3faYQ9d9/OCd11LeGYxqNPEYGdEdM23gkWDisImtMJitinw0dyc1jdy+ew36nwMorK5zGrAlld7L3IjLE1kBt7Mahc+r4QVchvn3intkfx8uKPyTaKEAmWEzbeCRkRvj8uVVfKj/uhvbkr4YPjFzDt4mXhnbkasM0fkqnUEsS7QC/XSYXuRdU4b6CT2WIeNVDQRZPs2fwtw8u/4/2B07cEy8L3ce3RSlcLkg7cnBUlck+bFxZN9VOwBgmrC0FrMXFkjmxrYtHArJqSg6PmRzvoX7UNNoTS+U26/ljQFqvp3uq4iFVDHvBvCoxB2sDJq0tAG/sb9zfgrQeiGYB+ujhMcN51nVLG78vt9VYZa/naPmifzEH6wwMrG06Vm1pCD/KfQ63Wcy5uiia6ZuBzdGtZgi3oSOx7VdLGy+Rj9GQFiM0dYzjYHaZUHD7/9ZtJdsKWAZhbWFFF3WuHFSzqT2xEm0mjC7h53TFGleXRDN9A+toqeigPbnjF9f0O5k/D4Cic/IYHWRlldsTUA4VYUXRhPOAtR2ciL5/4N7le27qSC5DdRn7PbGnFH4XIQ6KZvqmNBbajg2q2R/CDGRL+/7ytobz+PMB+CFBIFi9s79duQX7LOGHb6qLfIj50vKy0BbZpdWs6sCeTEBlPNwDoD2OG9YS3bznsOL35PP+ffI+JZvHjCx5nT821/PChQpiVRC1U4mQLATTN5oUvb251MTbF59c3cqfM9dorAlv3m9k7CMMFCh+x4CUzaAkYAx4SMT6W0Fam0JmhLGLPPUjmMJOt/g3ewyN3iOfSzMQ+BkDGiPvgtBzD4m/qxBauNTZ4YrTa1SvWWEgSGtDNBnh46bEs1om9/QtzS9dMr/mrrKS0NvyeTTucJABdxxu9/wjyntAYi+z3kHEmmsbpb2Gazc0ZyC2Mc1CNBnhYf2jOywpo2xNn1ze9KDPrakmEeUEBIn1MecQ7Xt+CAjSWhBNkqm+Ovy5FffvqeXND/XuTGjGmsINwtsA8C/1vZtgN/dCvI5CdGTElftx7J4EiZPS0rNrpYq49v2+uw2Kaj6TIcoXTYim7NBSRrg98dJ5c6uWhUNFG9lzEFBIyle7aGJml2FFKUBuEBr3DQuAZ7Dl3iMunjWx7EPT/Rtg4KVlB+xZonp+rJO++JRqaf0tzeRrMWWIZXcZhEwymZn6QGFExxUNt8SiRar1phyg3BRJedHdG8oF4H7sCvpNIbItizxqSHH36TMrtuVqcYSbYLedYYnKthGktSZQOFVnzf1W+ddsh9JIvPCdWVWXy+31rI1CVCsVLZqEl0vAAOWGKO511iSGC435YwyYQXef1y5pxDppaUBTNG0AXr2HbgfolDmKfYk5wSim6qShyegXJhTlwb2GF98ot9cjK5Q12yJvzQDiAryssgGJ2fiYuh9dwH3GHHEQ3ecjJ8QNicpCZxM4Qdpe0axtjZeE0lVHVGcq+M2Pm26rKlevfmEAImRLVFbcJi2eO5eiWGFV3sAMUMUVhEqt369MmCYqC5Cce2b8Vk7oVKAFbqpqtMemW0aVTI8u6wcl00sQwZ214v4aieEm5Tbhl5EbfQYLjBhez2MhERTyWoUgrVY0FgzuCNV5Ch67qXGJ3I4iKzrTrVS8m6RFH/hR8MzoT0vucz6RF9a5sTbClzBCz+AVFpzAHVON5IePL9tGdZyCx29qXB4OF6ne/NYLnAfnc1MwsrpRgIF7D4JYdp+DTN5li+o000AMoAdOenG+FzysiqzN9ZGMO0Bs6Eg8EAoVoWqJ7TgAnefViIf7thzvmUDQRmz0gyXrGxTyIneyYGaFVFupLbDg4GXCMOeicmmxMVrG7GN7ojMaLcKyOLbDAJA+FzGFXvycLYJcVZMVef2YbW5f3CANSZJVT2kQCwbwzHkv+HFVD545bk38/YZFtQvkdiqL3Pt3LhM2mvjbBoLiFhsJPAX8vqa8EKwxxlRRrlcd/WpZk3TajAqpukJtVeX4VZq4T2laP28+v05ae10j9S7bvCYtrKGKeAeNLvmC6kQFGzqSKIrgLRrO4XbMakZwD+x92UG+VdTgtzZN3t0GRt9cfFo1sfOlu2CtKoorUAUFgsIDQNKJb4/BpVBIq4n/4ApnjFvbk2sba8LYQI3tHMBPmVXNIJQl8sXKUoI+wm9mmLSLRoo+w37NbltdkPH0mZXSuD1KMhKUAko3iXvPuxU+GhfSYL71vaXfq4bV4ckA0oP8fhKnklFBjmXNCsIY6ILhIIc3I7j1xvwnlzebJigFEJy4Zz8ZEluCH0n1AxnuHLE6cbHcjnKFcxm3GokTNci5SKLlShBSmEpWeWF1rUKHtIEPbTTWZ/iA4q8z1wknumKxoqPZY3oRhBEMPxh/31YAt7HQRElWGbrMyYZIl1tWNxtgqoq4z0CTVmV1UHpovHyr5Vy5LT/y+tEV1hNYSUPlywB4FnhWxX3E3+gPAP2A8kF87mdvI1uB1TW1xNEv7ybKpxU+miyqUenhxvbkH2dNjE/nj5MRtA4A4Uy5ezowjPF6AQLnW4YZgv4zZXUn7V36aq7dZaLuGAhUeIMOVymdmddqyIS9Wm7Lj7BQyqAKLCH7LG4hSB6IVTFldd1MUplB0BcL8K6w4WseN7Qn/7HyisaD5fa8dQl69hTegVmLaQdBHtjMiqHVrSwP/TlXLxojXjyN3933padQUNWNw8+nHpCFTNjb5ba8RcID54PlsOsim0UQEnNOiKkMcy6yyyi+4O4DA4xvdRg3hpG+74Yx6lAPpkF7yzi5PT965tuEtNsuMga4QhK4nIbu8u5Di3+37obGT0i9cxgI+4jXgfjW+1EppNk3nm/oSLzV0hIFYdmHBPJxXtJuFtkI+dhnRgK303Aw9GpaSIe08Ah8JVAUVaxmmBXuxYaO5L1ye8Qn7ANiOiNfBZ4IXxjiFPJxuseKmIpzz5lT+QdKF50CSNtUF+Hflucr0qpiitHDY18aZoV7sWFV8gL5GF6BCyEe4wcpJ4D4ToiJOLe0JPTWmcdUPkfppBNILxbQvnjLF2GeSvFQIGFlzeOGVS1T5OP4UbFQFA+eCX5Ep1DoFpYX9G/GOLc4GvrALeLqLBbI6dw53DsV2ay8ZW5De/IdvICXPV5GvmSHhfhHoE+GHo0bFVQ6dcfgDJJR8CwBDCrwKmGoXNV9VbCfaIikzLrCvXhUPg43yT5MIcwpCsmdgLiqfAsPp4mrQ9pMAKFBYtyrY3O5OJHqwa3u3bNpdeIq+Th+5MONChHitkDvMiao9hsVW+/UXC6WlFLXMAlwwjZxVbHBviNiKepGM2FDe+Ii+Vg+JY9YTIgQr8Qz4qKIqKku8qF8TniRSIqxIK/NAe2yioE1FU1WEk0KOlc1Y3UOCMqeCx0oRIjXYoq4jyxtfJ/SZSvY1J5YubEj8XQf2hOdO/+fXHPWsZX3jdu9ZE04VPQedQ+9AOEtWVzViIDiZ/6mzKBzVRKjhSCsED8JdNIT4hrhpnNrO8eMLHmduodemOKKyrrGS0NfmaloorCpPXmqfA6Vay1DEFaIHwTJUF8QF/xKNkS2UPcgw7BmQVXkYGUah8em1Yl58jkEYYX4WUDcjJVpTianMkFnwTyA+yMFc0SqzDDqM1e01W3OBr3vd+UD7kKochISPIFnyRsXFUBcimhOAtaW2G4VIEkL68c3dBq6o4UQIT4QENfQ4lJkcwqw5hXxUIq4tqZCMOONOgTEDUKE+F1MxbgU4ZyATtkjvF+VeEFYzUWFCPGx5Iy4ZnZuxB/w492GY+VYQoR4JEbE7Zl9SPxeinh2kOwX4a8jQkohQiyI4TxudXn4k5rK8FYnUBoLbefOLzxUIUKyECRoMxLXRQgRIiRL8Zq4wsIKEeKAeEXczqKioqL/B++iGBXRgVSVAAAAAElFTkSuQmCC;" parent="1" vertex="1">
          <mxGeometry x="275.68000000000006" y="280.66999999999996" width="55.58" height="39.33" as="geometry" />
        </mxCell>
        <mxCell id="VtB4CXar6x7eSkOAjALX-9" value="" style="shape=image;aspect=fixed;image=data:image/svg+xml,PHN2ZyBlbmFibGUtYmFja2dyb3VuZD0ibmV3IDAgMCAyMzc2LjQgMTE3NC4yIiB2aWV3Qm94PSIwIDAgMjM3Ni40IDExNzQuMiIgeG1sbnM9Imh0dHA6Ly93d3cudzMub3JnLzIwMDAvc3ZnIj48cGF0aCBkPSJtMjc4LjkgOTA4cy00NC44IDI2LjEgMzIgMzQuOWM5MyAxMC42IDE0MC42IDkuMSAyNDMuMS0xMC4zIDAgMCAyNyAxNi45IDY0LjcgMzEuNS0yMzAgOTguNi01MjAuNC01LjYtMzM5LjgtNTYuMXptLTI4LjEtMTI4LjVzLTUwLjMgMzcuMiAyNi41IDQ1LjJjOTkuNCAxMC4zIDE3Ny45IDExLjEgMzEzLjctMTUgMCAwIDE4LjcgMTkgNDguMyAyOS41LTI3Ny44IDgxLjItNTg3LjMgNi4zLTM4OC41LTU5Ljd6IiBmaWxsPSIjNTU4MmEwIi8+PHBhdGggZD0ibTQ4Ny42IDU2MS40YzU2LjcgNjUuMi0xNC45IDEyMy45LTE0LjkgMTIzLjlzMTQzLjgtNzQuMiA3Ny44LTE2Ny4yYy02MS43LTg2LjctMTA5LTEyOS43IDE0Ny4xLTI3OC4yIDAtLjEtNDAyIDEwMC4zLTIxMCAzMjEuNXoiIGZpbGw9IiNmNjk3MzEiLz48cGF0aCBkPSJtNzkxLjYgMTAwMy4xczMzLjIgMjcuNC0zNi42IDQ4LjVjLTEzMi43IDQwLjItNTUyLjIgNTIuMy02NjguOCAxLjYtNDEuOS0xOC4yIDM2LjctNDMuNSA2MS40LTQ4LjggMjUuOC01LjYgNDAuNS00LjYgNDAuNS00LjYtNDYuNi0zMi44LTMwMS4xIDY0LjQtMTI5LjMgOTIuMyA0NjguNyA3NiA4NTQuMy0zNC4xIDczMi44LTg5em0tNDkxLjEtMzU2LjhzLTIxMy40IDUwLjctNzUuNiA2OS4xYzU4LjIgNy44IDE3NC4yIDYgMjgyLjMtMy4xIDg4LjMtNy40IDE3Ny0yMy4zIDE3Ny0yMy4zcy0zMS4xIDEzLjQtNTMuNyAyOC43Yy0yMTYuNyA1Ny02MzUuNCAzMC41LTUxNC44LTI3LjggMTAxLjktNDkuMiAxODQuOC00My42IDE4NC44LTQzLjZ6bTM4Mi44IDIxNGMyMjAuMy0xMTQuNCAxMTguNC0yMjQuNCA0Ny4zLTIwOS42LTE3LjQgMy42LTI1LjIgNi44LTI1LjIgNi44czYuNS0xMC4xIDE4LjgtMTQuNWMxNDAuNy00OS40IDI0OC44IDE0NS44LTQ1LjQgMjIzLjIuMS0uMiAzLjUtMy4yIDQuNS01Ljl6IiBmaWxsPSIjNTU4MmEwIi8+PHBhdGggZD0ibTU1MC41IDBzMTIyIDEyMi4xLTExNS43IDMwOS43Yy0xOTAuNiAxNTAuNi00My41IDIzNi40LS4xIDMzNC41LTExMS4zLTEwMC40LTE5Mi45LTE4OC44LTEzOC4yLTI3MSA4MC40LTEyMC44IDMwMy4yLTE3OS40IDI1NC0zNzMuMnoiIGZpbGw9IiNmNjk3MzEiLz48cGF0aCBkPSJtMzIyLjEgMTE3MC41YzIxMS40IDEzLjUgNTM2LjItNy41IDU0My45LTEwNy42IDAgMC0xNC44IDM3LjktMTc0LjcgNjgtMTgwLjUgMzQtNDAzLjEgMzAtNTM1LjEgOC4yLS4xLjEgMjcgMjIuNCAxNjUuOSAzMS40em0yMDE1LjUtNDcyLjhoLTYuNHYtMy42aDE3LjN2My42aC02LjR2MThoLTQuNXptMzQuNi45LTYuNSAxNy4xaC0yLjlsLTYuNC0xNy4xaC0uMXYxNy4xaC00LjN2LTIxLjZoNi4ybDUuOSAxNS4zIDUuOS0xNS4zaDYuMnYyMS42aC00LjF6IiBmaWxsPSIjNTU4MmEwIi8+PHBhdGggZD0ibTE4NzEuNCA2OTQuMWgxODIuM3Y0My41aC0xMjQuM3YxMTMuOWgxMDMuNnY0MS41aC0xMDMuNnYxMjYuOGgxMjguNXY0My4xaC0xODYuNXptMjY1LjMgMGgxODIuM3Y0My41aC0xMjQuM3YxMTMuOWgxMDMuNnY0MS41aC0xMDMuNnYxMjYuOGgxMjguNXY0My4xaC0xODYuNXoiIGZpbGw9IiNmODk4MWQiLz48cGF0aCBkPSJtMTIzNS44IDk5OWMtMTkuOSAxNy4zLTQxIDI3LTU5LjkgMjctMjcgMC00MS42LTE2LjItNDEuNi00Mi4xIDAtMjguMSAxNS43LTQ4LjYgNzguMy00OC42aDIzLjJ6bTU1IDYyLjF2LTE5Mi4yYzAtNDkuMS0yOC04MS41LTk1LjUtODEuNS0zOS40IDAtNzMuOSA5LjctMTAyIDIyLjFsOC4xIDM0YzIyLjEtOC4xIDUwLjctMTUuNyA3OC44LTE1LjcgMzguOSAwIDU1LjYgMTUuNyA1NS42IDQ4LjF2MjQuM2gtMTkuNGMtOTQuNSAwLTEzNy4xIDM2LjYtMTM3LjEgOTEuOCAwIDQ3LjUgMjguMSA3NC41IDgxIDc0LjUgMzQgMCA1OS40LTE0IDgzLjEtMzQuNmw0LjMgMjkuMnptMTgzLjcgMGgtNjguNmwtODIuNi0yNjguOGg1OS45bDUxLjMgMTY1LjIgMTEuNCA0OS42YzI1LjktNzEuOCA0NC4yLTE0NC43IDUzLjQtMjE0LjhoNTguM2MtMTUuNiA4OC41LTQzLjcgMTg1LjYtODMuMSAyNjguOHptMjYzLjQtNjIuMWMtMjAgMTcuMy00MS4xIDI3LTYwIDI3LTI3IDAtNDEuNi0xNi4yLTQxLjYtNDIuMSAwLTI4LjEgMTUuNy00OC42IDc4LjMtNDguNmgyMy4yem01NSA2Mi4xdi0xOTIuMmMwLTQ5LjEtMjguMS04MS41LTk1LjYtODEuNS0zOS40IDAtNzQgOS43LTEwMi4xIDIyLjFsOC4xIDM0YzIyLjEtOC4xIDUwLjgtMTUuNyA3OC44LTE1LjcgMzguOSAwIDU1LjYgMTUuNyA1NS42IDQ4LjF2MjQuM2gtMTkuNGMtOTQuNSAwLTEzNy4xIDM2LjYtMTM3LjEgOTEuOCAwIDQ3LjUgMjguMSA3NC41IDgxIDc0LjUgMzQgMCA1OS40LTE0IDgzLjItMzQuNmw0LjMgMjkuMnptLTc3NCA0NS43Yy0xNS43IDIyLjktNDEgNDEuMS02OC44IDUxLjNsLTI3LjItMzJjMjEuMS0xMC45IDM5LjItMjguMyA0Ny42LTQ0LjYgNy4zLTE0LjUgMTAuMy0zMy4yIDEwLjMtNzcuOHYtMzA3aDU4LjV2MzAyLjdjMCA1OS43LTQuNyA4My44LTIwLjQgMTA3LjR6IiBmaWxsPSIjNTU4MmEwIi8+PC9zdmc+;" parent="1" vertex="1">
          <mxGeometry x="262.23" y="320" width="82.47" height="40.68" as="geometry" />
        </mxCell>
        <mxCell id="CfccMLyii2oI4sjfGrXo-5" value="" style="shape=image;aspect=fixed;image=data:image/svg+xml,PD94bWwgdmVyc2lvbj0iMS4wIiBlbmNvZGluZz0iVVRGLTgiPz4NCjwhRE9DVFlQRSBzdmcgUFVCTElDICItLy9XM0MvL0RURCBTVkcgMS4xLy9FTiIgImh0dHA6Ly93d3cudzMub3JnL0dyYXBoaWNzL1NWRy8xLjEvRFREL3N2ZzExLmR0ZCI+DQo8IS0tIENyZWF0b3I6IENvcmVsRFJBVyAtLT4NCjxzdmcgeG1sbnM9Imh0dHA6Ly93d3cudzMub3JnLzIwMDAvc3ZnIiB4bWw6c3BhY2U9InByZXNlcnZlIiB3aWR0aD0iMS43MDY2NmluIiBoZWlnaHQ9IjEuNzA2NjZpbiIgdmVyc2lvbj0iMS4xIiBzdHlsZT0ic2hhcGUtcmVuZGVyaW5nOmdlb21ldHJpY1ByZWNpc2lvbjsgdGV4dC1yZW5kZXJpbmc6Z2VvbWV0cmljUHJlY2lzaW9uOyBpbWFnZS1yZW5kZXJpbmc6b3B0aW1pemVRdWFsaXR5OyBmaWxsLXJ1bGU6ZXZlbm9kZDsgY2xpcC1ydWxlOmV2ZW5vZGQiDQp2aWV3Qm94PSIwIDAgMTcwNyAxNzA3Ig0KIHhtbG5zOnhsaW5rPSJodHRwOi8vd3d3LnczLm9yZy8xOTk5L3hsaW5rIj4NCiA8ZGVmcz4NCiAgPHN0eWxlIHR5cGU9InRleHQvY3NzIj4NCiAgIDwhW0NEQVRBWw0KICAgIC5maWwwIHtmaWxsOmJsYWNrfQ0KICAgIC5maWwyIHtmaWxsOiMwMEU2RkZ9DQogICAgLmZpbDYge2ZpbGw6IzA1RTY2Qn0NCiAgICAuZmlsMyB7ZmlsbDojN0JGRkNEfQ0KICAgIC5maWwxIHtmaWxsOiNFOEY5RkN9DQogICAgLmZpbDQge2ZpbGw6I0ZGNTQ1QX0NCiAgICAuZmlsNSB7ZmlsbDojRkZEMDZBfQ0KICAgXV0+DQogIDwvc3R5bGU+DQogPC9kZWZzPg0KIDxnIGlkPSJMYXllcl94MDAyMF8xIj4NCiAgPG1ldGFkYXRhIGlkPSJDb3JlbENvcnBJRF8wQ29yZWwtTGF5ZXIiLz4NCiAgPHBhdGggY2xhc3M9ImZpbDAiIGQ9Ik00OTMgMTQwNGMtMjMxLDAgLTQxNSwtMTg4IC00MTQsLTQxNSAyLC0yMjggMTg2LC00MTUgNDE1LC00MTMgMjMxLDIgNDEzLDE4NyA0MTMsNDE0IDAsMTEyIC00NSwyMTEgLTExNSwyODggLTc1LDgxIC0xODksMTI2IC0yOTksMTI2em05NDcgMTk2bC0xMTczIDBjLTE0OCwwIC0yNjcsLTEyMCAtMjY3LC0yNjdsMCAtOTU5YzAsLTE0OCAxMTksLTI2NyAyNjcsLTI2N2wxMTczIDBjMTQ3LDAgMjY3LDExOSAyNjcsMjY3bDAgOTU5YzAsMTQ3IC0xMjAsMjY3IC0yNjcsMjY3em0tMTE3MyAtMTQ0MGMtMTE4LDAgLTIxNCw5NiAtMjE0LDIxNGwwIDEyIDE2MDEgMCAwIC0xMmMwLC0xMTggLTk2LC0yMTQgLTIxNCwtMjE0bC0xMTczIDB6bS0yMTQgMjc5bDAgODk0YzAsMTE4IDk2LDIxNCAyMTQsMjE0bDExNzMgMGMxMTgsMCAyMTQsLTk2IDIxNCwtMjE0bDAgLTg5NCAtMTYwMSAwem0xNDYyIDY2NmwtNDU4IDBjLTY0LDAgLTExNSwtNTEgLTExNSwtMTE1IDAsLTY0IDUxLC0xMTUgMTE1LC0xMTVsNDU3IDBjNjQsMCAxMTUsNTEgMTE1LDExNSAwLDY0IC01MCwxMTUgLTExNCwxMTV6bS00NTggLTE3N2MtODMsMCAtODMsMTI1IDAsMTI1bDQ1NyAwYzgyLDAgODIsLTEyNSAwLC0xMjVsLTQ1NyAwem0zMTUgLTU3MWMtNDcsMCAtODUsLTM4IC04NSwtODUgMCwtNDcgMzgsLTg1IDg1LC04NSA0NywwIDg1LDM4IDg1LDg1IDAsNDcgLTM5LDg1IC04NSw4NXptMCAtMTE1Yy00MCwwIC00MCw2MSAwLDYxIDQwLDAgNDAsLTYxIDAsLTYxem0tMjA3IDExNWMtNDcsMCAtODUsLTM4IC04NSwtODUgMCwtNDcgMzgsLTg1IDg1LC04NSA0NywwIDg1LDM4IDg1LDg1IDAsNDcgLTM4LDg1IC04NSw4NXptMCAtMTE1Yy00MCwwIC00MCw2MSAwLDYxIDQwLDAgNDEsLTYxIDAsLTYxem0tMjA1IDExNWMtNDgsMCAtODUsLTM4IC04NSwtODUgMCwtNDcgMzcsLTg1IDg1LC04NSA0NywwIDg0LDM4IDg0LDg1IDAsNDcgLTM5LDg1IC04NCw4NXptMCAtMTE1Yy00MSwwIC00MSw2MSAwLDYxIDQwLDAgNDAsLTYxIDAsLTYxem0tNDkzIDExMDVsMCAtMTgwYy00MSwzIC04MCwxMyAtMTE3LDI5IDI4LDc5IDY5LDEzNSAxMTcsMTUxem0wIC0yMzJsMCAtOTggLTE0OSAwYzIsNDUgOCw4OCAxNywxMjcgNDIsLTE3IDg2LC0yNyAxMzIsLTI5em0wIC0xNTFsMCAtOThjLTQ2LC0zIC05MCwtMTMgLTEzMiwtMzAgLTksMzkgLTE1LDgzIC0xNywxMjhsMTQ5IDB6bTAgLTE1M2wwIC0xNzhjLTQ4LDE2IC04OSw3MiAtMTE2LDE1MCAzNiwxNiA3NSwyNiAxMTYsMjh6bTUyIC0xNzhsMCAxNzhjNDEsLTIgODAsLTEyIDExNiwtMjcgLTI3LC03OSAtNjgsLTEzNSAtMTE2LC0xNTF6bTAgMjMzbDAgOTggMTQ4IDBjLTEsLTQ2IC03LC04OSAtMTcsLTEyOCAtNDEsMTcgLTg1LDI3IC0xMzEsMzB6bTAgMTUxbDAgOThjNDYsMiA5MCwxMiAxMzIsMjkgOSwtMzkgMTUsLTgyIDE2LC0xMjdsLTE0OCAwem0wIDE1MGwwIDE4MGM0OCwtMTYgOTAsLTcyIDExNywtMTUxIC0zNywtMTYgLTc2LC0yNiAtMTE3LC0yOXptLTE2MyAxNTZjLTIxLC0yOCAtMzksLTYyIC01MywtMTAyIC0xOCwxMSAtMzQsMjMgLTUwLDM3IDMxLDI4IDY2LDUwIDEwMyw2NXptLTY5IC0xNTVjLTEyLC00NiAtMjAsLTk3IC0yMSwtMTUxbC0xMzMgMGM2LDc2IDM2LDE0NyA4MiwyMDMgMjIsLTIwIDQ2LC0zNyA3MiwtNTJ6bS0yMSAtMjA0YzEsLTU0IDksLTEwNiAyMSwtMTUyIC0yNiwtMTQgLTUwLC0zMiAtNzIsLTUyIC00Niw1NiAtNzYsMTI3IC04MiwyMDRsMTMzIDB6bTM3IC0yMDVjMTUsLTQwIDMzLC03NSA1NCwtMTAzIC0zOCwxNSAtNzMsMzggLTEwNCw2NSAxNiwxNCAzMywyNyA1MCwzOHptMzI2IC0xMDNjMjIsMjggNDAsNjMgNTUsMTAyIDE3LC0xMSAzNCwtMjMgNDksLTM3IC0zMCwtMjggLTY2LC01MCAtMTA0LC02NXptNzEgMTU1YzEyLDQ3IDIwLDk4IDIyLDE1M2wxMzEgMGMtNiwtNzcgLTM1LC0xNDggLTgyLC0yMDQgLTIyLDE5IC00NiwzNyAtNzEsNTF6bTIyIDIwNmMtMiw1NCAtMTAsMTA1IC0yMiwxNTIgMjUsMTQgNDksMzEgNzEsNTEgNDYsLTU2IDc2LC0xMjcgODIsLTIwM2wtMTMxIDB6bS0zOCAyMDRjLTE1LDQwIC0zMyw3NCAtNTQsMTAyIDM4LC0xNSA3MywtMzcgMTAzLC02NSAtMTUsLTE0IC0zMiwtMjYgLTQ5LC0zN3oiLz4NCiAgPHBhdGggY2xhc3M9ImZpbDEiIGQ9Ik00OTQgNTc2YzIzMSwyIDQxMywxODcgNDEzLDQxNCAwLDExMiAtNDUsMjExIC0xMTUsMjg4IC03NSw4MSAtMTg5LDEyNiAtMjk5LDEyNiAtMjMxLDAgLTQxNSwtMTg4IC00MTQsLTQxNSAyLC0yMjggMTg2LC00MTUgNDE1LC00MTN6bS0yMjcgOTcxbDExNzMgMGMxMTgsMCAyMTQsLTk2IDIxNCwtMjE0bDAgLTg5NCAtMTYwMSAwIDAgODk0YzAsMTE4IDk2LDIxNCAyMTQsMjE0em03OTAgLTY3Mmw0NTcgMGM2NCwwIDExNSw1MSAxMTUsMTE1IDAsNjQgLTUwLDExNSAtMTE0LDExNWwtNDU4IDBjLTY0LDAgLTExNSwtNTEgLTExNSwtMTE1IDAsLTY0IDUxLC0xMTUgMTE1LC0xMTV6Ii8+DQogIDxwYXRoIGNsYXNzPSJmaWwyIiBkPSJNNzMzIDcyMWMtMzAsLTI4IC02NiwtNTAgLTEwNCwtNjUgMjIsMjggNDAsNjMgNTUsMTAyIDE3LC0xMSAzNCwtMjMgNDksLTM3eiIvPg0KICA8cGF0aCBjbGFzcz0iZmlsMiIgZD0iTTYzNSA3ODRjLTI3LC03OSAtNjgsLTEzNSAtMTE2LC0xNTFsMCAxNzhjNDEsLTIgODAsLTEyIDExNiwtMjd6Ii8+DQogIDxwYXRoIGNsYXNzPSJmaWwyIiBkPSJNNDY3IDgxMWwwIC0xNzhjLTQ4LDE2IC04OSw3MiAtMTE2LDE1MCAzNiwxNiA3NSwyNiAxMTYsMjh6Ii8+DQogIDxwYXRoIGNsYXNzPSJmaWwyIiBkPSJNMzAzIDc1OWMxNSwtNDAgMzMsLTc1IDU0LC0xMDMgLTM4LDE1IC03MywzOCAtMTA0LDY1IDE2LDE0IDMzLDI3IDUwLDM4eiIvPg0KICA8cGF0aCBjbGFzcz0iZmlsMiIgZD0iTTI4NyA4MTJjLTI2LC0xNCAtNTAsLTMyIC03MiwtNTIgLTQ2LDU2IC03NiwxMjcgLTgyLDIwNGwxMzMgMGMxLC01NCA5LC0xMDYgMjEsLTE1MnoiLz4NCiAgPHBhdGggY2xhc3M9ImZpbDIiIGQ9Ik0zMzUgODM2Yy05LDM5IC0xNSw4MyAtMTcsMTI4bDE0OSAwIDAgLTk4Yy00NiwtMyAtOTAsLTEzIC0xMzIsLTMweiIvPg0KICA8cGF0aCBjbGFzcz0iZmlsMiIgZD0iTTUxOSA4NjZsMCA5OCAxNDggMGMtMSwtNDYgLTcsLTg5IC0xNywtMTI4IC00MSwxNyAtODUsMjcgLTEzMSwzMHoiLz4NCiAgPHBhdGggY2xhc3M9ImZpbDIiIGQ9Ik03MDAgODExYzEyLDQ3IDIwLDk4IDIyLDE1M2wxMzEgMGMtNiwtNzcgLTM1LC0xNDggLTgyLC0yMDQgLTIyLDE5IC00NiwzNyAtNzEsNTF6Ii8+DQogIDxwYXRoIGNsYXNzPSJmaWwyIiBkPSJNODUzIDEwMTdsLTEzMSAwYy0yLDU0IC0xMCwxMDUgLTIyLDE1MiAyNSwxNCA0OSwzMSA3MSw1MSA0NiwtNTYgNzYsLTEyNyA4MiwtMjAzeiIvPg0KICA8cGF0aCBjbGFzcz0iZmlsMiIgZD0iTTY1MSAxMTQ0YzksLTM5IDE1LC04MiAxNiwtMTI3bC0xNDggMCAwIDk4YzQ2LDIgOTAsMTIgMTMyLDI5eiIvPg0KICA8cGF0aCBjbGFzcz0iZmlsMiIgZD0iTTQ2NyAxMTE1bDAgLTk4IC0xNDkgMGMyLDQ1IDgsODggMTcsMTI3IDQyLC0xNyA4NiwtMjcgMTMyLC0yOXoiLz4NCiAgPHBhdGggY2xhc3M9ImZpbDIiIGQ9Ik0yODcgMTE2OGMtMTIsLTQ2IC0yMCwtOTcgLTIxLC0xNTFsLTEzMyAwYzYsNzYgMzYsMTQ3IDgyLDIwMyAyMiwtMjAgNDYsLTM3IDcyLC01MnoiLz4NCiAgPHBhdGggY2xhc3M9ImZpbDIiIGQ9Ik0zMDMgMTIyMWMtMTgsMTEgLTM0LDIzIC01MCwzNyAzMSwyOCA2Niw1MCAxMDMsNjUgLTIxLC0yOCAtMzksLTYyIC01MywtMTAyeiIvPg0KICA8cGF0aCBjbGFzcz0iZmlsMiIgZD0iTTM1MCAxMTk2YzI4LDc5IDY5LDEzNSAxMTcsMTUxbDAgLTE4MGMtNDEsMyAtODAsMTMgLTExNywyOXoiLz4NCiAgPHBhdGggY2xhc3M9ImZpbDIiIGQ9Ik01MTkgMTE2N2wwIDE4MGM0OCwtMTYgOTAsLTcyIDExNywtMTUxIC0zNywtMTYgLTc2LC0yNiAtMTE3LC0yOXoiLz4NCiAgPHBhdGggY2xhc3M9ImZpbDIiIGQ9Ik02ODQgMTIyMWMtMTUsNDAgLTMzLDc0IC01NCwxMDIgMzgsLTE1IDczLC0zNyAxMDMsLTY1IC0xNSwtMTQgLTMyLC0yNiAtNDksLTM3eiIvPg0KICA8cGF0aCBjbGFzcz0iZmlsMiIgZD0iTTEwNTcgOTI4Yy04MywwIC04MywxMjUgMCwxMjVsNDU3IDBjODIsMCA4MiwtMTI1IDAsLTEyNWwtNDU3IDB6Ii8+DQogIDxwYXRoIGNsYXNzPSJmaWwzIiBkPSJNNTMgMzg2bDE2MDEgMCAwIC0xMmMwLC0xMTggLTk2LC0yMTQgLTIxNCwtMjE0bC0xMTczIDBjLTExOCwwIC0yMTQsOTYgLTIxNCwyMTRsMCAxMnptOTA3IC0yOWMtNDgsMCAtODUsLTM4IC04NSwtODUgMCwtNDcgMzcsLTg1IDg1LC04NSA0NywwIDg0LDM4IDg0LDg1IDAsNDcgLTM5LDg1IC04NCw4NXptMjA1IDBjLTQ3LDAgLTg1LC0zOCAtODUsLTg1IDAsLTQ3IDM4LC04NSA4NSwtODUgNDcsMCA4NSwzOCA4NSw4NSAwLDQ3IC0zOCw4NSAtODUsODV6bTIwNyAwYy00NywwIC04NSwtMzggLTg1LC04NSAwLC00NyAzOCwtODUgODUsLTg1IDQ3LDAgODUsMzggODUsODUgMCw0NyAtMzksODUgLTg1LDg1eiIvPg0KICA8cGF0aCBjbGFzcz0iZmlsNCIgZD0iTTk2MCAyNDJjLTQxLDAgLTQxLDYxIDAsNjEgNDAsMCA0MCwtNjEgMCwtNjF6Ii8+DQogIDxwYXRoIGNsYXNzPSJmaWw1IiBkPSJNMTE2NSAyNDJjLTQwLDAgLTQwLDYxIDAsNjEgNDAsMCA0MSwtNjEgMCwtNjF6Ii8+DQogIDxwYXRoIGNsYXNzPSJmaWw2IiBkPSJNMTM3MiAyNDJjLTQwLDAgLTQwLDYxIDAsNjEgNDAsMCA0MCwtNjEgMCwtNjF6Ii8+DQogPC9nPg0KPC9zdmc+DQo=;" parent="1" vertex="1">
          <mxGeometry x="100.32000000000002" y="300.37" width="41.35" height="41.35" as="geometry" />
        </mxCell>
        <mxCell id="ea_knz8M6V3I__mRxIHp-1" value="Document DB&lt;br&gt;Replica #2" style="shape=cylinder3;whiteSpace=wrap;html=1;boundedLbl=1;backgroundOutline=1;size=15;" vertex="1" parent="1">
          <mxGeometry x="659.1700000000001" y="470.67" width="75" height="100" as="geometry" />
        </mxCell>
        <mxCell id="ea_knz8M6V3I__mRxIHp-3" value="Document DB&lt;br&gt;Replica #1" style="shape=cylinder3;whiteSpace=wrap;html=1;boundedLbl=1;backgroundOutline=1;size=15;" vertex="1" parent="1">
          <mxGeometry x="606.84" y="363.35" width="75" height="100" as="geometry" />
        </mxCell>
        <mxCell id="ea_knz8M6V3I__mRxIHp-4" value="" style="shape=image;aspect=fixed;image=data:image/svg+xml,PHN2ZyBpZD0iTGF5ZXJfMSIgZGF0YS1uYW1lPSJMYXllciAxIiB4bWxucz0iaHR0cDovL3d3dy53My5vcmcvMjAwMC9zdmciIHZpZXdCb3g9IjAgMCAxMTEyLjYxIDMwMCI+PGRlZnM+PHN0eWxlPi5jbHMtMXtmaWxsOiMxMGFhNTA7fS5jbHMtMntmaWxsOiNiOGM0YzI7fS5jbHMtM3tmaWxsOiMxMjkyNGY7fS5jbHMtNHtmaWxsOiMyMTMxM2M7fTwvc3R5bGU+PC9kZWZzPjx0aXRsZT5Nb25nb0RCX0xvZ29fRnVsbENvbG9yQmxhY2tfUkdCPC90aXRsZT48cGF0aCBjbGFzcz0iY2xzLTEiIGQ9Ik0xMzQuNDQsMTIwLjM0QzExOS4xMyw1Mi44LDg3LjIyLDM0LjgyLDc5LjA4LDIyLjExYTE0NC41NywxNDQuNTcsMCwwLDEtOC45LTE3LjQyYy0uNDMsNi0xLjIyLDkuNzgtNi4zMiwxNC4zM0M1My42MiwyOC4xNSwxMC4xMyw2My41OSw2LjQ3LDE0MC4zM2MtMy40MSw3MS41NSw1Mi42LDExNS42Nyw2MCwxMjAuMjMsNS42OSwyLjgsMTIuNjIuMDYsMTYtMi41MSwyNy0xOC41Myw2My44OS02Ny45Myw1Mi0xMzcuNzEiLz48cGF0aCBjbGFzcz0iY2xzLTIiIGQ9Ik03Mi41LDIyMi40NmMtMS40MSwxNy43MS0yLjQyLDI4LTYsMzguMTIsMCwwLDIuMzUsMTYuODYsNCwzNC43Mmg1Ljg0YTMyNC43MywzMjQuNzMsMCwwLDEsNi4zNy0zNy4zOUM3NS4xNSwyNTQuMTksNzIuNzksMjM4LDcyLjUsMjIyLjQ2WiIvPjxwYXRoIGNsYXNzPSJjbHMtMyIgZD0iTTgyLjcsMjU3LjkyaDBjLTcuNjQtMy41My05Ljg1LTIwLjA2LTEwLjE5LTM1LjQ2YTcyNS44Myw3MjUuODMsMCwwLDAsMS42NS03Ni4zNWMtLjQtMTMuMzYuMTktMTIzLjc0LTMuMjktMTM5LjlBMTM0LjI5LDEzNC4yOSwwLDAsMCw3OS4wOCwyMi4xYzguMTQsMTIuNzIsNDAuMDYsMzAuNyw1NS4zNiw5OC4yNEMxNDYuMzYsMTkwLDEwOS42NywyMzkuMjcsODIuNywyNTcuOTJaIi8+PHBhdGggY2xhc3M9ImNscy00IiBkPSJNMTA4OS43LDIzMy41YTE2LjU5LDE2LjU5LDAsMSwxLDE2LjU5LTE2LjgyLDE2LjM4LDE2LjM4LDAsMCwxLTE2LjU5LDE2LjgybTAtMzEuNjhhMTUuMSwxNS4xLDAsMSwwLDE1LDE1LjE0LDE0Ljg1LDE0Ljg1LDAsMCwwLTE1LTE1LjE0bTQsMjUuNTgtNC4yOC05LjIzaC0zLjQ1djkuMjNoLTIuNTF2LTIxaDYuMTljNC42MSwwLDYuNTMsMiw2LjUzLDUuODcsMCwzLjA4LTEuNDUsNS00LjE1LDUuNTlsNC40Miw5LjUxWk0xMDg2LjA3LDIxNmgzLjYzYzIuOTQsMCw0LjA2LTEsNC4wNi0zLjY4cy0xLjA3LTMuNTktNC4zOC0zLjU5aC0zLjMxWiIvPjxwYXRoIGNsYXNzPSJjbHMtNCIgZD0iTTg0Mi43OSwyMTguMzhjNC40OSwzLjU5LDEzLjQ2LDUuMDcsMjEuMzcsNS4wNywxMC4yNSwwLDIwLjMtMS45LDMwLjEyLTEwLjc3LDEwLTkuMDksMTYuODgtMjMsMTYuODgtNDUuMjEsMC0yMS4zNC04LjEyLTM4LjY2LTI0Ljc4LTQ4LjgtOS40LTUuOTEtMjEuNTgtOC4yNC0zNS40Ny04LjI0LTQsMC04LjEyLjIxLTEwLjQ2LDEuMjdhNS40OSw1LjQ5LDAsMCwwLTEuOTMsM2MtLjQyLDMuOC0uNDIsMzIuNzQtLjQyLDQ5Ljg1LDAsMTcuNTQsMCw0MiwuNDIsNDUsLjIyLDIuNTQsMS41LDcsNC4yNyw4Ljg3TTgwMC4xNSwxMDAuOTNjMy42MywwLDE3LjQzLjYzLDIzLjg1LjYzLDEyLDAsMjAuMjktLjYzLDQyLjcyLS42MywxOC44LDAsMzQuNjIsNS4wNyw0NS45MywxNC43OCwxMy42OCwxMS44NCwyMSwyOC4zMSwyMSw0OC4zOCwwLDI4LjUyLTEzLDQ1LTI2LjA3LDU0LjI5LTEzLDkuNzItMjkuOTEsMTUuMjEtNTQsMTUuMjEtMTIuODIsMC0zNC44My0uNDItNTMuMi0uNjNIODAwYy0uODYtMS42OSwxLjU3LTguMjgsMy4wNy04LjQ1LDUtLjU2LDYuMzItLjc2LDguNjItMS43MSwzLjg4LTEuNTksNC43OS0zLjU3LDUuMjItMTAuNTQuNjQtMTMuMS40My0yOC43My40My00Ni40OCwwLTEyLjY3LjIxLTM3LjM5LS4yMS00NS4yMS0uNjUtNi41NC0zLjQxLTguMjMtOS05LjVhMTE2LjI0LDExNi4yNCwwLDAsMC0xMi0xLjljLS40Mi0xLjI3LDIuODYtNywzLjkzLTguMjQiLz48cGF0aCBjbGFzcz0iY2xzLTQiIGQ9Ik05ODYuNiwxMTEuNjVjLS44NS4yMS0xLjkyLDIuMzMtMS45MiwzLjM4LS4yMiw3LjYxLS40MywyNy40Ni0uNDMsNDEuMTlhMS4zNiwxLjM2LDAsMCwwLDEuMDcsMS4wNmMyLjc3LjIxLDkuNjEuNDMsMTUuMzguNDMsOC4xMiwwLDEyLjgyLTEuMDYsMTUuMzgtMi4zMyw2Ljg0LTMuMzgsMTAtMTAuNzgsMTAtMTguOCwwLTE4LjM4LTEyLjgyLTI1LjM1LTMxLjgzLTI1LjM1YTU3LjM1LDU3LjM1LDAsMCwwLTcuNjkuNDJtNDguNSw4NC41YzAtMTguNTktMTMuNjgtMjkuMTUtMzguNjgtMjkuMTUtMS4wNiwwLTktLjIxLTEwLjg5LjIxLS42NC4yMS0xLjI4LjYzLTEuMjgsMS4wNiwwLDEzLjMxLS4yMiwzNC42NC40Myw0My4wOS40MywzLjU5LDMsOC42Niw2LjE5LDEwLjE0LDMuNDIsMS45LDExLjExLDIuMzIsMTYuNDUsMi4zMiwxNC43NCwwLDI3Ljc4LTguMjMsMjcuNzgtMjcuNjdNOTQ4LDEwMS4zYzEuOTMsMCw3LjYxLjYzLDIyLjE0LjYzLDEzLjY3LDAsMjQuNzgtLjQyLDM4LS40MiwxNi40NSwwLDM5LjA5LDUuOTIsMzkuMDksMzAuNDIsMCwxMi04LjU0LDIxLjc2LTE5LjY1LDI2LjQxLS42NC4yMS0uNjQuNjMsMCwuODQsMTUuODEsNCwyOS42OSwxMy43MywyOS42OSwzMi4zMiwwLDE4LjE3LTExLjMyLDI5LjU4LTI3Ljc3LDM2Ljc2LTEwLDQuNDQtMjIuNDMsNS45MS0zNSw1LjkxLTkuNjEsMC0zNS4zNy0xLTQ5LjY5LS44NC0xLjUtLjYzLDEuMzctNy40LDIuNjUtOC40NWEzOS4zOCwzOS4zOCwwLDAsMCw5LjY5LTEuNTJjNS4xMi0xLjI2LDUuNzMtMi45MSw2LjM3LTEwLjUyLjQzLTYuNTUuNDMtMzAsLjQzLTQ2LjY5LDAtMjIuODIuMjItMzguMjMsMC00NS44NC0uMjEtNS45MS0yLjM1LTcuODItNi40MS04Ljg3LTMuMi0uNjQtOC41NC0xLjI3LTEyLjgxLTEuOS0xLjA3LTEuMDYsMi4yMi03LjQsMy4yOC04LjI0Ii8+PHBhdGggY2xhc3M9ImNscy00IiBkPSJNMTgxLjc1LDIzMy41YTkuMjYsOS4yNiwwLDAsMS0uNjUtNC4yNyw1LjQzLDUuNDMsMCwwLDEsLjY1LTIuODUsNzIuNTgsNzIuNTgsMCwwLDAsOC4yLTEuNjdjMy43OC0uOTQsNS4yLTMsNS40Mi03LjgyLjYyLTExLjM5LjY2LTMyLjc2LjQ0LTQ3Ljc4di0uNDRjMC0xLjYyLDAtMy44Mi0yLTUuMzdhNDIuOTQsNDIuOTQsMCwwLDAtMTEuMzMtNWMtMS43OS0uNTMtMi43OC0xLjQ3LTIuNzMtMi41N3MxLjE4LTIuNCwzLjUxLTIuODZjNi4xOS0uNjMsMjIuNDEtNC41LDI4Ljc4LTcuNDRhNC4yMiw0LjIyLDAsMCwxLC44NSwzYzAsLjY2LS4xLDEuMzYtLjE3LDIuMDgtLjE4LDIuMTItLjM4LDQuNTMtLjM4LDYuOTNhMS41OCwxLjU4LDAsMCwwLDIuNjguOTFjMTIuMTMtOS41MSwyMy0xMi45LDI4LjU3LTEyLjksOS4xNywwLDE2LjMxLDQuMzgsMjEuODQsMTMuNGExLjQ3LDEuNDcsMCwwLDAsMS4yNC43MywxLjQyLDEuNDIsMCwwLDAsMS4xNi0uNjJjMTEuMTUtOC40NiwyMi4yLTEzLjUxLDI5LjYtMTMuNTEsMTcuNDgsMCwyNy45MywxMy4wOSwyNy45MywzNSwwLDYuMy0uMDYsMTQuMjktLjEyLDIxLjc0LS4wNSw2LjU0LS4xLDEyLjY3LS4xLDE2LjkxLDAsMSwxLjM4LDMuODgsMy40NSw0LjQ1LDIuNTYsMS4yNSw2LjI1LDEuODksMTAuOTIsMi42OWwuMTgsMGMuMzUsMS4yNi0uMzksNi4xNS0xLjEsNy4xNS0xLjE2LDAtMi43Ni0uMS00Ljc2LS4yLTMuNjMtLjE4LTguNjEtLjQzLTE0LjQtLjQzLTExLjYyLDAtMTcuNjkuMjItMjMuNDkuNi0uNDQtMS40NS0uNTktNi4xMy0uMDYtNy4xMUE2MS41NSw2MS41NSwwLDAsMCwzMDMsMjI0LjdjMy43LTEuMjIsNC43Ny0yLjksNS03LjgxLjA5LTMuNDkuNzYtMzQuMjQtLjQzLTQxLjU0LTEuMS03LjU3LTYuOC0xNi40My0xOS4yNy0xNi40My00LjYzLDAtMTIuMSwxLjkzLTE5LjIyLDcuMzNhMi44LDIuOCwwLDAsMC0uNywxLjgxdi4xNWMuODQsMy45NC44NCw4LjU0Ljg0LDE1LjQ5LDAsNCwwLDguMTctLjA1LDEyLjM0LS4wNSw4LjQ4LS4wOSwxNi40OC4wNSwyMi41MywwLDQuMTIsMi40OSw1LjExLDQuNSw1LjksMS4wOS4yNCwxLjk1LjQ1LDIuODIuNjUsMS42Ny40MSwzLjQxLjgzLDYsMS4yNGExMS40OSwxMS40OSwwLDAsMS0uMSw1LjMyLDQuMjYsNC4yNiwwLDAsMS0uNzUsMS44MWMtNi40Ni0uMjItMTMuMDktLjQxLTIyLjY2LS40MS0yLjksMC03LjYzLjEyLTExLjgxLjIzLTMuMzkuMDktNi41OS4xOC04LjQxLjE5YTguMjQsOC4yNCwwLDAsMS0uNjQtMy42OCw2LjM4LDYuMzgsMCwwLDEsLjY3LTMuNDRsMi41Ny0uNDdjMi4yNC0uNCw0LjE4LS43NCw2LTEuMiwzLjE2LTEsNC4zNS0yLjcyLDQuNTgtNi43NS42Mi05LjQsMS4xLTM2LjQ5LS4yMy00My4yNy0yLjI2LTEwLjg4LTguNDUtMTYuNC0xOC40MS0xNi40LTUuODMsMC0xMy4yLDIuODEtMTkuMjIsNy4zMmE1Ljg2LDUuODYsMCwwLDAtMS43Nyw0LjM1YzAsMy4yMywwLDcuMDcsMCwxMS4xOSwwLDEzLjYtLjA5LDMwLjUzLjI0LDM3Ljg1LjIsMi4yNiwxLDQuOTQsNS4yMyw1LjkyLjkzLjI3LDIuNTMuNTMsNC4zOS44NCwxLjA3LjE4LDIuMjQuMzcsMy40NS41OWExNS4xNiwxNS4xNiwwLDAsMS0uNTcsNy4xNWMtMS44NiwwLTQuMTUtLjEyLTYuNzctLjIzLTQtLjE4LTktLjQtMTQuNjUtLjQtNi42OCwwLTExLjMzLjIyLTE1LjA2LjQtMi41MS4xMi00LjY4LjIyLTYuODUuMjMiLz48cGF0aCBjbGFzcz0iY2xzLTQiIGQ9Ik0zOTYuMiwxNTQuNDlBMTguMjIsMTguMjIsMCwwLDAsMzg2LDE1Ny4zNmMtNy40Miw0LjUxLTExLjIsMTMuNTItMTEuMiwyNi43NiwwLDI0Ljc4LDEyLjQxLDQyLjA5LDMwLjE4LDQyLjA5QTE5LDE5LDAsMCwwLDQxOCwyMjEuNmM1LjQ2LTQuNDUsOC4zNi0xMy41NSw4LjM2LTI2LjI5LDAtMjQuNDEtMTIuMTMtNDAuODItMzAuMTgtNDAuODJtMy40Miw4MC45MWMtMzIuMSwwLTQzLjUzLTIzLjU1LTQzLjUzLTQ1LjU4LDAtMTUuMzksNi4yOS0yNy40MiwxOC43LTM1Ljc3YTU3LjExLDU3LjExLDAsMCwxLDI4Ljg5LTguNTRjMjQuNDksMCw0MS42LDE3LjYxLDQxLjYsNDIuODQsMCwxNy4xNC02LjgzLDMwLjY4LTE5Ljc2LDM5LjE0LTYuMjEsMy44LTE3LDcuOTEtMjUuOSw3LjkxIi8+PHBhdGggY2xhc3M9ImNscy00IiBkPSJNNzIzLDE1NC40OWExOC4xNywxOC4xNywwLDAsMC0xMC4yMiwyLjg3Yy03LjQyLDQuNTEtMTEuMiwxMy41Mi0xMS4yLDI2Ljc2LDAsMjQuNzgsMTIuNDEsNDIuMDksMzAuMTgsNDIuMDlhMTksMTksMCwwLDAsMTMuMDYtNC42MWM1LjQ2LTQuNDUsOC4zNS0xMy41NSw4LjM1LTI2LjI5LDAtMjQuNDEtMTIuMTItNDAuODItMzAuMTctNDAuODJtMy40Miw4MC45MWMtMzIuMSwwLTQzLjUzLTIzLjU1LTQzLjUzLTQ1LjU3LDAtMTUuNDEsNi4yOS0yNy40MywxOC43MS0zNS43OGE1Nyw1NywwLDAsMSwyOC44OC04LjU0YzI0LjQ5LDAsNDEuNiwxNy42Miw0MS42LDQyLjgzLDAsMTcuMTYtNi44MywzMC42OS0xOS43NiwzOS4xNC02LjIxLDMuODEtMTcsNy45Mi0yNS45LDcuOTIiLz48cGF0aCBjbGFzcz0iY2xzLTQiIGQ9Ik02MTQuOTIsMTUzLjY1Yy05Ljg5LDAtMTYuMjksNy44MS0xNi4yOSwxOS45czUuNTEsMjYuNDYsMjEsMjYuNDZjMi42NiwwLDcuNDgtMS4xOCw5Ljg3LTMuODEsMy42LTMuMzEsNi0xMC4xNSw2LTE3LjM3LDAtMTUuNzctNy42OC0yNS4xOC0yMC41My0yNS4xOG0tMS4yOCw4My40NGExNi4yOSwxNi4yOSwwLDAsMC04LDJjLTcuODMsNS0xMS40NiwxMC0xMS40NiwxNS44MSwwLDUuNDQsMi4xMSw5Ljc3LDYuNjUsMTMuNjEsNS41LDQuNjYsMTIuOTIsNi45MywyMi42Nyw2LjkzLDE5LjE5LDAsMjcuNzktMTAuMzIsMjcuNzktMjAuNTQsMC03LjEyLTMuNTctMTEuODktMTAuOTItMTQuNTktNS42Ni0yLjA3LTE1LjEyLTMuMjEtMjYuNy0zLjIxbTEuMjgsNDljLTExLjUyLDAtMTkuODItMi40My0yNi45MS03Ljg5LTYuOS01LjMyLTEwLTEzLjIyLTEwLTE4LjY4YTE0LjYxLDE0LjYxLDAsMCwxLDMuNzgtOS41YzItMi4yOCw2LjY1LTYuNTUsMTcuNC0xMy45NGEuOTIuOTIsMCwwLDAsLjU2LS44NS44OS44OSwwLDAsMC0uNjgtLjg4Yy04Ljg1LTMuMzktMTEuNTItOS0xMi4zMy0xMiwwLS4xMSwwLS4yOC0uMDktLjQ3LS4yNS0xLjE4LS40OS0yLjMsMS4xMi0zLjQ1LDEuMjQtLjg4LDMuMjItMi4wNiw1LjM0LTMuMzFhNzEuODksNzEuODksMCwwLDAsOC41OS01LjU5LDEuNDEsMS40MSwwLDAsMC0uMzYtMi4yYy0xMy4xLTQuNC0xOS43LTE0LjEzLTE5LjctMjlhMjguODMsMjguODMsMCwwLDEsMTIuMS0yMy43M2M1LjI3LTQuMTcsMTguNS05LjE4LDI3LjA3LTkuMThoLjVjOC44MS4yMSwxMy43OCwyLjA2LDIwLjY2LDQuNmEzMi44NCwzMi44NCwwLDAsMCwxMi4yMiwxLjk0YzcuMjksMCwxMC40OC0yLjMxLDEzLjIyLTVhMTEuNDcsMTEuNDcsMCwwLDEsLjcsMy43OCwxNC4yMiwxNC4yMiwwLDAsMS0yLjM4LDguNjhjLTEuNDksMi4wNy01LDMuNTctOC4yMSwzLjU3LS4zMywwLS42NSwwLTEtLjA1YTI2Ljk0LDI2Ljk0LDAsMCwxLTUtLjgzbC0uODIuMjljLS4yNi4zOC0uMDkuOC4xMiwxLjM0YTEuNywxLjcsMCwwLDEsLjEyLjMzLDU4LjUyLDU4LjUyLDAsMCwxLDEuMTksOC4xYzAsMTUuNTUtNi4xMywyMi4zMi0xMi43NiwyNy4zNGE0My41Niw0My41NiwwLDAsMS0yMiw4LjUyaDBjLS4xNywwLTEsLjA3LTIuNTYuMjEtMSwuMDktMi4zLjIxLTIuNDkuMjFsLS4xOSwwYy0xLjQ0LjQtNS4yLDIuMTktNS4yLDUuNTIsMCwyLjc2LDEuNyw2LjE5LDkuODMsNi44MWw1LjI2LjM3YzEwLjcyLjc1LDI0LjExLDEuNjgsMzAuNDEsMy44MWEyMS4wNiwyMS4wNiwwLDAsMSwxNC4wNywyMC4yN2MwLDEzLjk1LTkuOTIsMjcuMDctMjYuNTMsMzUuMDlhNTcuNjYsNTcuNjYsMCwwLDEtMjUuMDksNS42MyIvPjxwYXRoIGNsYXNzPSJjbHMtNCIgZD0iTTU2NS44NiwyMjYuMDZjLTQuNy0uNjMtOC4xMy0xLjI3LTEyLjE4LTMuMTdhNS42LDUuNiwwLDAsMS0xLjUtM2MtLjQzLTYuNTUtLjQzLTI1LjU2LS40My0zOCwwLTEwLjE1LTEuNy0xOS02LTI1LjM1LTUuMTMtNy4xOS0xMi4zOS0xMS40MS0yMS43OS0xMS40MS04LjMzLDAtMTkuNDQsNS43LTI4LjYyLDEzLjUyLS4yMi4yMS0xLjYzLDEuNTUtMS42LS41M3MuMzUtNi4zLjU1LTlhNC42Myw0LjYzLDAsMCwwLTEuNC0zLjkyYy02LDMtMjIuODMsNy0yOS4wNiw3LjYxLTQuNTQuODgtNS42OSw1LjI1LS44NCw2Ljc2bC4wNywwYTQxLjQ2LDQxLjQ2LDAsMCwxLDExLDQuODRjMS45MiwxLjQ4LDEuNzEsMy41OSwxLjcxLDUuMjguMjEsMTQuMTUuMjEsMzUuOTEtLjQzLDQ3Ljc0LS4yMSw0LjY1LTEuNSw2LjM0LTQuOTIsNy4xOWwuMzItLjExYTY2LjQ2LDY2LjQ2LDAsMCwxLTcuOTEsMS40OGMtMS4wNywxLjA1LTEuMDcsNy4xOCwwLDguNDUsMi4xNCwwLDEzLS42MywyMi0uNjMsMTIuMzgsMCwxOC43OS42MywyMiwuNjMsMS4yOS0xLjQ4LDEuNzEtNy4xOC44Ni04LjQ1YTQ1LDQ1LDAsMCwxLTguNzctMS4yN2MtMy40MS0uODQtNC4yNy0yLjU0LTQuNDgtNi4zMy0uNDItOS45NC0uNDItMzEuMDYtLjQyLTQ1LjQzLDAtNCwxLjA2LTUuOTEsMi4zNC03LDQuMjctMy44LDExLjMzLTYuMzMsMTcuNTItNi4zMyw2LDAsMTAsMS45LDEzLDQuNDNBMTguMSwxOC4xLDAsMCwxLDUzMywxNzZjLjg1LDgsLjYzLDI0LjA5LjYzLDM4LDAsNy42MS0uNjMsOS41Mi0zLjQxLDEwLjM2LTEuMjguNjMtNC43LDEuMjctOC43NiwxLjY5LTEuMjgsMS4yNy0uODYsNy4xOCwwLDguNDUsNS41NSwwLDEyLS42MywyMS4zNi0uNjMsMTEuNzUsMCwxOS4yMy42MywyMi4yMi42MywxLjI4LTEuNDgsMS43MS03LC44Ni04LjQ1Ii8+PC9zdmc+;" vertex="1" parent="1">
          <mxGeometry x="556.76" y="580" width="175.16" height="47.3" as="geometry" />
        </mxCell>
        <mxCell id="ea_knz8M6V3I__mRxIHp-5" value="" style="group" vertex="1" connectable="0" parent="1">
          <mxGeometry x="558.34" y="150" width="172" height="136.71" as="geometry" />
        </mxCell>
        <mxCell id="VtB4CXar6x7eSkOAjALX-7" value="" style="shape=image;aspect=fixed;image=data:image/svg+xml,PHN2ZyB3aWR0aD0iODUyIiBoZWlnaHQ9IjM4MCIgdmlld0JveD0iMCAwIDg1MiAzODAiIGZpbGw9Im5vbmUiIHhtbG5zPSJodHRwOi8vd3d3LnczLm9yZy8yMDAwL3N2ZyI+CjxyZWN0IHdpZHRoPSI4NTIiIGhlaWdodD0iMzc5LjI4NyIgZmlsbD0iI0ZGRkZGRiIvPgo8cGF0aCBkPSJNMjk2LjAxNyAxNTAuNzA1QzI3My40NyAxNTAuNzA1IDI1OC4zMzkgMTYzLjgzMyAyNTguMzM5IDE4OS4yOTlWMjA3LjQ1NkMyNjAuNjI4IDIwNi4zMyAyNjMuMTQxIDIwNS43MzMgMjY1LjY5MiAyMDUuNzA4QzI2OC4yNDcgMjA1LjcwOSAyNzAuNzY5IDIwNi4yOTIgMjczLjA2NSAyMDcuNDEzVjE4OS4yMTRDMjczLjA2NSAxNzIuNjk4IDI4Mi4xODYgMTY0LjIxNiAyOTYuMDggMTY0LjIxNkMzMDkuOTc1IDE2NC4yMTYgMzE4Ljk2OCAxNzIuNjk4IDMxOC45NjggMTg5LjIxNFYyMjguODk0SDMzMy42NTFWMTg5LjIxNEMzMzMuNjk0IDE2My41OTggMzE4LjU2MyAxNTAuNzA1IDI5Ni4wMTcgMTUwLjcwNVoiIGZpbGw9ImJsYWNrIi8+CjxwYXRoIGQ9Ik0zNDEuNjg1IDE5MC43NjlDMzQxLjY4NSAxNjcuNjA1IDM1OC43MzQgMTUwLjYyIDM4Mi43NTEgMTUwLjYyQzQwNi43NjggMTUwLjYyIDQyMy41MTggMTY3LjY2OCA0MjMuNTE4IDE5MC43NjlWMTk2LjE2MUgzNTcuMTE0QzM1OS4yNDUgMjA5Ljc1NyAzNjkuNDc0IDIxNy4zMjIgMzgyLjY4NyAyMTcuMzIyQzM5Mi41NzUgMjE3LjMyMiAzOTkuNTIyIDIxNC4yMzIgNDAzLjk5OCAyMDcuNjA1SDQyMC4xOTRDNDE0LjMzMyAyMjEuNzk3IDQwMC40MzkgMjMwLjkxOCAzODIuNjg3IDIzMC45MThDMzU4LjY3IDIzMC45MTggMzQxLjY4NSAyMTMuOTM0IDM0MS42ODUgMTkwLjc2OVpNNDA4LjA2OCAxODMuMDU1QzQwNS4xMjcgMTcwLjg0NCAzOTUuMTExIDE2NC4yMTYgMzgyLjc1MSAxNjQuMjE2QzM3MC4zOTEgMTY0LjIxNiAzNjAuNTI0IDE3MS4wMTQgMzU3LjU4MyAxODMuMDU1SDQwOC4wNjhaIiBmaWxsPSJibGFjayIvPgo8cGF0aCBkPSJNNDMxLjM2IDE5MC43NjlDNDMxLjM2IDE2Ny42MjYgNDQ4LjQwOSAxNTAuNjQxIDQ3Mi40MjYgMTUwLjY0MUM0OTYuNDQzIDE1MC42NDEgNTEzLjQ5MiAxNjcuNjkgNTEzLjQ5MiAxOTAuNzY5QzUxMy40OTIgMjEzLjg0OSA0OTYuNDQzIDIzMC45MTggNDcyLjQyNiAyMzAuOTE4QzQ0OC40MDkgMjMwLjkxOCA0MzEuMzYgMjEzLjkzNCA0MzEuMzYgMTkwLjc2OVpNNDk4LjY4MSAxOTAuNzY5QzQ5OC42ODEgMTc1LjM0IDQ4OC4xNzUgMTY0LjIxNiA0NzIuNDI2IDE2NC4yMTZDNDU2LjY3OCAxNjQuMjE2IDQ0Ni4xOTMgMTc1LjM0IDQ0Ni4xOTMgMTkwLjc2OUM0NDYuMTkzIDIwNi4xOTggNDU2LjY3NyAyMTcuMzIyIDQ3Mi40MDUgMjE3LjMyMkM0ODguMTMyIDIxNy4zMjIgNDk4LjY4MSAyMDYuMjE5IDQ5OC42ODEgMTkwLjc2OVoiIGZpbGw9ImJsYWNrIi8+CjxwYXRoIGQ9Ik01OTcuMzcgMjQ0LjA4OUg1OTkuMDc1QzYwOC40OTQgMjQ0LjA4OSA2MTIuMDMyIDIzOS44MjcgNjEyLjAzMiAyMjkuMTcxVjE1My4xNzhINjI2LjcxNVYyMjguMTkxQzYyNi43MTUgMjQ3LjAzIDYxOS4yOTkgMjU2Ljc0NyA2MDAuNDYgMjU2Ljc0N0g1OTcuMzdWMjQ0LjA4OVoiIGZpbGw9ImJsYWNrIi8+CjxwYXRoIGQ9Ik01OTAuMDM5IDIzNi4yNDZINTc1LjM1NlYyMTguMTU0SDUzOC4xNjlDNTM0Ljc3NCAyMTguMjcyIDUzMS40MTIgMjE3LjQ0OSA1MjguNDU2IDIxNS43NzVDNTI1LjUgMjE0LjEwMSA1MjMuMDY0IDIxMS42NDIgNTIxLjQxOSAyMDguNjdDNTIwLjA4MyAyMDUuODc3IDUxOS41NjIgMjAyLjc2MyA1MTkuOTE2IDE5OS42ODdDNTIwLjI3IDE5Ni42MTEgNTIxLjQ4NiAxOTMuNjk3IDUyMy40MjIgMTkxLjI4MUw1NTYuNzk1IDE0Ny40ODdDNTU5LjEwMSAxNDQuMzc0IDU2Mi4zMyAxNDIuMDY3IDU2Ni4wMjMgMTQwLjg5NEM1NjkuNzE1IDEzOS43MjEgNTczLjY4NCAxMzkuNzQgNTc3LjM2NCAxNDAuOTUxQzU4MS4wNDUgMTQyLjE2MSA1ODQuMjUgMTQ0LjUgNTg2LjUyNiAxNDcuNjM2QzU4OC44MDEgMTUwLjc3MiA1OTAuMDMgMTU0LjU0NSA1OTAuMDM5IDE1OC40MlYyMDUuMTMzSDYwMS4wNTdWMjE4LjE1NEg1OTAuMDM5VjIzNi4yNDZaTTUzNS42MzMgMTk5LjI5NEM1MzUuMTk0IDE5OS45MTggNTM0Ljk1NiAyMDAuNjYxIDUzNC45NTEgMjAxLjQyNUM1MzQuOTQ4IDIwMS45MSA1MzUuMDQyIDIwMi4zOSA1MzUuMjI2IDIwMi44MzlDNTM1LjQxIDIwMy4yODcgNTM1LjY4MiAyMDMuNjk1IDUzNi4wMjUgMjA0LjAzOEM1MzYuMzY4IDIwNC4zODEgNTM2Ljc3NSAyMDQuNjUyIDUzNy4yMjQgMjA0LjgzN0M1MzcuNjcyIDIwNS4wMjEgNTM4LjE1MyAyMDUuMTE0IDUzOC42MzggMjA1LjExMUg1NzUuMzU2VjE1OC4wNThDNTc1LjM4MyAxNTcuMjY2IDU3NS4xNSAxNTYuNDg3IDU3NC42OTIgMTU1Ljg0QzU3NC4yMzQgMTU1LjE5MyA1NzMuNTc2IDE1NC43MTUgNTcyLjgyIDE1NC40NzdDNTcyLjM4MyAxNTQuMzUzIDU3MS45MzIgMTU0LjI4OSA1NzEuNDc4IDE1NC4yODZDNTcwLjkwNCAxNTQuMjg1IDU3MC4zMzkgMTU0LjQyNyA1NjkuODMzIDE1NC42OTlDNTY5LjMyNyAxNTQuOTcgNTY4Ljg5NiAxNTUuMzYzIDU2OC41NzkgMTU1Ljg0MUw1MzUuNjMzIDE5OS4yOTRaIiBmaWxsPSJibGFjayIvPgo8cGF0aCBkPSJNNjE5LjQ0OCAxMjJDNjE2Ljk2IDEyMS45OTYgNjE0LjUyNyAxMjIuNzMgNjEyLjQ1NyAxMjQuMTA5QzYxMC4zODYgMTI1LjQ4OCA2MDguNzcyIDEyNy40NSA2MDcuODE3IDEyOS43NDdDNjA2Ljg2MiAxMzIuMDQ0IDYwNi42MSAxMzQuNTczIDYwNy4wOTIgMTM3LjAxM0M2MDcuNTc1IDEzOS40NTMgNjA4Ljc3MSAxNDEuNjk2IDYxMC41MjggMTQzLjQ1NkM2MTIuMjg2IDE0NS4yMTcgNjE0LjUyNiAxNDYuNDE3IDYxNi45NjYgMTQ2LjkwM0M2MTkuNDA1IDE0Ny4zOSA2MjEuOTM1IDE0Ny4xNDMgNjI0LjIzMyAxNDYuMTkxQzYyNi41MzIgMTQ1LjI0IDYyOC40OTcgMTQzLjYyOSA2MjkuODc5IDE0MS41NjFDNjMxLjI2MiAxMzkuNDkzIDYzMiAxMzcuMDYxIDYzMiAxMzQuNTczQzYzMiAxMzEuMjQyIDYzMC42NzggMTI4LjA0OCA2MjguMzI1IDEyNS42OUM2MjUuOTcyIDEyMy4zMzMgNjIyLjc3OSAxMjIuMDA2IDYxOS40NDggMTIyWiIgZmlsbD0iIzAxOEJGRiIvPgo8cGF0aCBkPSJNMjY1LjA1MiAyMTAuMzc1QzI2Mi4zMjUgMjEwLjM3OCAyNTkuNjc1IDIxMS4yNzYgMjU3LjUwOCAyMTIuOTMyTDI0My42OTkgMjAzLjQ5MkMyNDQuMDA2IDIwMi4zODggMjQ0LjE2NCAyMDEuMjQ5IDI0NC4xNjggMjAwLjEwM0MyNDQuMTk3IDE5Ny42MTYgMjQzLjQ4NyAxOTUuMTc1IDI0Mi4xMjcgMTkzLjA5MkMyNDAuNzY3IDE5MS4wMDkgMjM4LjgxOCAxODkuMzc3IDIzNi41MjggMTg4LjQwM0MyMzQuMjM5IDE4Ny40MyAyMzEuNzEyIDE4Ny4xNTggMjI5LjI2OCAxODcuNjI0QzIyNi44MjQgMTg4LjA5IDIyNC41NzMgMTg5LjI3MSAyMjIuODAyIDE5MS4wMThDMjIxLjAzMSAxOTIuNzY1IDIxOS44MTkgMTk1IDIxOS4zMiAxOTcuNDM3QzIxOC44MjEgMTk5Ljg3NCAyMTkuMDU4IDIwMi40MDUgMjIwIDIwNC43MDhDMjIwLjk0MiAyMDcuMDEgMjIyLjU0NyAyMDguOTgxIDIyNC42MTIgMjEwLjM3QzIyNi42NzYgMjExLjc1OCAyMjkuMTA3IDIxMi41MDIgMjMxLjU5NSAyMTIuNTA2QzIzNC4zMjIgMjEyLjUwOCAyMzYuOTc0IDIxMS42MDkgMjM5LjEzOSAyMDkuOTQ5TDI1Mi45MDUgMjE5LjQ1M0MyNTIuMjggMjIxLjY3NiAyNTIuMjggMjI0LjAyOSAyNTIuOTA1IDIyNi4yNTFMMjM5LjA5NiAyMzUuNjkyQzIzNi45NDMgMjM0LjA0MSAyMzQuMzA4IDIzMy4xNDIgMjMxLjU5NSAyMzMuMTM1QzIyOS4xMDYgMjMzLjEzMSAyMjYuNjcyIDIzMy44NjUgMjI0LjYwMSAyMzUuMjQ1QzIyMi41MyAyMzYuNjI1IDIyMC45MTUgMjM4LjU4OCAyMTkuOTYxIDI0MC44ODdDMjE5LjAwNyAyNDMuMTg1IDIxOC43NTYgMjQ1LjcxNSAyMTkuMjQxIDI0OC4xNTZDMjE5LjcyNSAyNTAuNTk3IDIyMC45MjMgMjUyLjgzOSAyMjIuNjgzIDI1NC41OTlDMjI0LjQ0MiAyNTYuMzU4IDIyNi42ODUgMjU3LjU1NiAyMjkuMTI2IDI1OC4wNDFDMjMxLjU2NyAyNTguNTI1IDIzNC4wOTYgMjU4LjI3NCAyMzYuMzk1IDI1Ny4zMkMyMzguNjkzIDI1Ni4zNjYgMjQwLjY1NiAyNTQuNzUxIDI0Mi4wMzYgMjUyLjY4QzI0My40MTYgMjUwLjYwOSAyNDQuMTUxIDI0OC4xNzUgMjQ0LjE0NyAyNDUuNjg3QzI0NC4xNDYgMjQ0LjU1NyAyNDMuOTk1IDI0My40MzIgMjQzLjY5OSAyNDIuMzQxTDI1Ny41MDggMjMyLjlDMjU5LjY3NSAyMzQuNTU2IDI2Mi4zMjUgMjM1LjQ1NSAyNjUuMDUyIDIzNS40NThDMjY4LjIyNCAyMzUuMjMxIDI3MS4xOTIgMjMzLjgxMSAyNzMuMzU4IDIzMS40ODRDMjc1LjUyNSAyMjkuMTU3IDI3Ni43MyAyMjYuMDk2IDI3Ni43MyAyMjIuOTE2QzI3Ni43MyAyMTkuNzM3IDI3NS41MjUgMjE2LjY3NSAyNzMuMzU4IDIxNC4zNDhDMjcxLjE5MiAyMTIuMDIxIDI2OC4yMjQgMjEwLjYwMiAyNjUuMDUyIDIxMC4zNzVaIiBmaWxsPSIjMDE4QkZGIi8+Cjwvc3ZnPgo=;movable=1;resizable=1;rotatable=1;deletable=1;editable=1;locked=0;connectable=1;" parent="ea_knz8M6V3I__mRxIHp-5" vertex="1">
          <mxGeometry x="5.92" y="80.00000000000003" width="172" height="76.71" as="geometry" />
        </mxCell>
        <mxCell id="VtB4CXar6x7eSkOAjALX-2" value="GraphDB" style="shape=cylinder3;whiteSpace=wrap;html=1;boundedLbl=1;backgroundOutline=1;size=15;movable=1;resizable=1;rotatable=1;deletable=1;editable=1;locked=0;connectable=1;" parent="ea_knz8M6V3I__mRxIHp-5" vertex="1">
          <mxGeometry x="54.41999999999996" width="75" height="100" as="geometry" />
        </mxCell>
        <mxCell id="ea_knz8M6V3I__mRxIHp-9" value="Client" style="text;html=1;strokeColor=none;fillColor=none;align=center;verticalAlign=middle;whiteSpace=wrap;rounded=0;" vertex="1" parent="1">
          <mxGeometry x="91.00000000000003" y="341.04" width="60" height="30" as="geometry" />
        </mxCell>
        <mxCell id="ea_knz8M6V3I__mRxIHp-10" value="" style="shape=image;aspect=fixed;image=data:image/svg+xml,PD94bWwgdmVyc2lvbj0iMS4wIiBlbmNvZGluZz0iVVRGLTgiPz4NCjwhRE9DVFlQRSBzdmcgUFVCTElDICItLy9XM0MvL0RURCBTVkcgMS4xLy9FTiIgImh0dHA6Ly93d3cudzMub3JnL0dyYXBoaWNzL1NWRy8xLjEvRFREL3N2ZzExLmR0ZCI+DQo8IS0tIENyZWF0b3I6IENvcmVsRFJBVyAtLT4NCjxzdmcgeG1sbnM9Imh0dHA6Ly93d3cudzMub3JnLzIwMDAvc3ZnIiB4bWw6c3BhY2U9InByZXNlcnZlIiB3aWR0aD0iMS43MDY2NmluIiBoZWlnaHQ9IjEuNzA2NjZpbiIgdmVyc2lvbj0iMS4xIiBzdHlsZT0ic2hhcGUtcmVuZGVyaW5nOmdlb21ldHJpY1ByZWNpc2lvbjsgdGV4dC1yZW5kZXJpbmc6Z2VvbWV0cmljUHJlY2lzaW9uOyBpbWFnZS1yZW5kZXJpbmc6b3B0aW1pemVRdWFsaXR5OyBmaWxsLXJ1bGU6ZXZlbm9kZDsgY2xpcC1ydWxlOmV2ZW5vZGQiDQp2aWV3Qm94PSIwIDAgMTcwNyAxNzA3Ig0KIHhtbG5zOnhsaW5rPSJodHRwOi8vd3d3LnczLm9yZy8xOTk5L3hsaW5rIj4NCiA8ZGVmcz4NCiAgPHN0eWxlIHR5cGU9InRleHQvY3NzIj4NCiAgIDwhW0NEQVRBWw0KICAgIC5maWwwIHtmaWxsOmJsYWNrfQ0KICAgIC5maWwyIHtmaWxsOiMwMEU2RkZ9DQogICAgLmZpbDYge2ZpbGw6IzA1RTY2Qn0NCiAgICAuZmlsMyB7ZmlsbDojN0JGRkNEfQ0KICAgIC5maWwxIHtmaWxsOiNFOEY5RkN9DQogICAgLmZpbDQge2ZpbGw6I0ZGNTQ1QX0NCiAgICAuZmlsNSB7ZmlsbDojRkZEMDZBfQ0KICAgXV0+DQogIDwvc3R5bGU+DQogPC9kZWZzPg0KIDxnIGlkPSJMYXllcl94MDAyMF8xIj4NCiAgPG1ldGFkYXRhIGlkPSJDb3JlbENvcnBJRF8wQ29yZWwtTGF5ZXIiLz4NCiAgPHBhdGggY2xhc3M9ImZpbDAiIGQ9Ik00OTMgMTQwNGMtMjMxLDAgLTQxNSwtMTg4IC00MTQsLTQxNSAyLC0yMjggMTg2LC00MTUgNDE1LC00MTMgMjMxLDIgNDEzLDE4NyA0MTMsNDE0IDAsMTEyIC00NSwyMTEgLTExNSwyODggLTc1LDgxIC0xODksMTI2IC0yOTksMTI2em05NDcgMTk2bC0xMTczIDBjLTE0OCwwIC0yNjcsLTEyMCAtMjY3LC0yNjdsMCAtOTU5YzAsLTE0OCAxMTksLTI2NyAyNjcsLTI2N2wxMTczIDBjMTQ3LDAgMjY3LDExOSAyNjcsMjY3bDAgOTU5YzAsMTQ3IC0xMjAsMjY3IC0yNjcsMjY3em0tMTE3MyAtMTQ0MGMtMTE4LDAgLTIxNCw5NiAtMjE0LDIxNGwwIDEyIDE2MDEgMCAwIC0xMmMwLC0xMTggLTk2LC0yMTQgLTIxNCwtMjE0bC0xMTczIDB6bS0yMTQgMjc5bDAgODk0YzAsMTE4IDk2LDIxNCAyMTQsMjE0bDExNzMgMGMxMTgsMCAyMTQsLTk2IDIxNCwtMjE0bDAgLTg5NCAtMTYwMSAwem0xNDYyIDY2NmwtNDU4IDBjLTY0LDAgLTExNSwtNTEgLTExNSwtMTE1IDAsLTY0IDUxLC0xMTUgMTE1LC0xMTVsNDU3IDBjNjQsMCAxMTUsNTEgMTE1LDExNSAwLDY0IC01MCwxMTUgLTExNCwxMTV6bS00NTggLTE3N2MtODMsMCAtODMsMTI1IDAsMTI1bDQ1NyAwYzgyLDAgODIsLTEyNSAwLC0xMjVsLTQ1NyAwem0zMTUgLTU3MWMtNDcsMCAtODUsLTM4IC04NSwtODUgMCwtNDcgMzgsLTg1IDg1LC04NSA0NywwIDg1LDM4IDg1LDg1IDAsNDcgLTM5LDg1IC04NSw4NXptMCAtMTE1Yy00MCwwIC00MCw2MSAwLDYxIDQwLDAgNDAsLTYxIDAsLTYxem0tMjA3IDExNWMtNDcsMCAtODUsLTM4IC04NSwtODUgMCwtNDcgMzgsLTg1IDg1LC04NSA0NywwIDg1LDM4IDg1LDg1IDAsNDcgLTM4LDg1IC04NSw4NXptMCAtMTE1Yy00MCwwIC00MCw2MSAwLDYxIDQwLDAgNDEsLTYxIDAsLTYxem0tMjA1IDExNWMtNDgsMCAtODUsLTM4IC04NSwtODUgMCwtNDcgMzcsLTg1IDg1LC04NSA0NywwIDg0LDM4IDg0LDg1IDAsNDcgLTM5LDg1IC04NCw4NXptMCAtMTE1Yy00MSwwIC00MSw2MSAwLDYxIDQwLDAgNDAsLTYxIDAsLTYxem0tNDkzIDExMDVsMCAtMTgwYy00MSwzIC04MCwxMyAtMTE3LDI5IDI4LDc5IDY5LDEzNSAxMTcsMTUxem0wIC0yMzJsMCAtOTggLTE0OSAwYzIsNDUgOCw4OCAxNywxMjcgNDIsLTE3IDg2LC0yNyAxMzIsLTI5em0wIC0xNTFsMCAtOThjLTQ2LC0zIC05MCwtMTMgLTEzMiwtMzAgLTksMzkgLTE1LDgzIC0xNywxMjhsMTQ5IDB6bTAgLTE1M2wwIC0xNzhjLTQ4LDE2IC04OSw3MiAtMTE2LDE1MCAzNiwxNiA3NSwyNiAxMTYsMjh6bTUyIC0xNzhsMCAxNzhjNDEsLTIgODAsLTEyIDExNiwtMjcgLTI3LC03OSAtNjgsLTEzNSAtMTE2LC0xNTF6bTAgMjMzbDAgOTggMTQ4IDBjLTEsLTQ2IC03LC04OSAtMTcsLTEyOCAtNDEsMTcgLTg1LDI3IC0xMzEsMzB6bTAgMTUxbDAgOThjNDYsMiA5MCwxMiAxMzIsMjkgOSwtMzkgMTUsLTgyIDE2LC0xMjdsLTE0OCAwem0wIDE1MGwwIDE4MGM0OCwtMTYgOTAsLTcyIDExNywtMTUxIC0zNywtMTYgLTc2LC0yNiAtMTE3LC0yOXptLTE2MyAxNTZjLTIxLC0yOCAtMzksLTYyIC01MywtMTAyIC0xOCwxMSAtMzQsMjMgLTUwLDM3IDMxLDI4IDY2LDUwIDEwMyw2NXptLTY5IC0xNTVjLTEyLC00NiAtMjAsLTk3IC0yMSwtMTUxbC0xMzMgMGM2LDc2IDM2LDE0NyA4MiwyMDMgMjIsLTIwIDQ2LC0zNyA3MiwtNTJ6bS0yMSAtMjA0YzEsLTU0IDksLTEwNiAyMSwtMTUyIC0yNiwtMTQgLTUwLC0zMiAtNzIsLTUyIC00Niw1NiAtNzYsMTI3IC04MiwyMDRsMTMzIDB6bTM3IC0yMDVjMTUsLTQwIDMzLC03NSA1NCwtMTAzIC0zOCwxNSAtNzMsMzggLTEwNCw2NSAxNiwxNCAzMywyNyA1MCwzOHptMzI2IC0xMDNjMjIsMjggNDAsNjMgNTUsMTAyIDE3LC0xMSAzNCwtMjMgNDksLTM3IC0zMCwtMjggLTY2LC01MCAtMTA0LC02NXptNzEgMTU1YzEyLDQ3IDIwLDk4IDIyLDE1M2wxMzEgMGMtNiwtNzcgLTM1LC0xNDggLTgyLC0yMDQgLTIyLDE5IC00NiwzNyAtNzEsNTF6bTIyIDIwNmMtMiw1NCAtMTAsMTA1IC0yMiwxNTIgMjUsMTQgNDksMzEgNzEsNTEgNDYsLTU2IDc2LC0xMjcgODIsLTIwM2wtMTMxIDB6bS0zOCAyMDRjLTE1LDQwIC0zMyw3NCAtNTQsMTAyIDM4LC0xNSA3MywtMzcgMTAzLC02NSAtMTUsLTE0IC0zMiwtMjYgLTQ5LC0zN3oiLz4NCiAgPHBhdGggY2xhc3M9ImZpbDEiIGQ9Ik00OTQgNTc2YzIzMSwyIDQxMywxODcgNDEzLDQxNCAwLDExMiAtNDUsMjExIC0xMTUsMjg4IC03NSw4MSAtMTg5LDEyNiAtMjk5LDEyNiAtMjMxLDAgLTQxNSwtMTg4IC00MTQsLTQxNSAyLC0yMjggMTg2LC00MTUgNDE1LC00MTN6bS0yMjcgOTcxbDExNzMgMGMxMTgsMCAyMTQsLTk2IDIxNCwtMjE0bDAgLTg5NCAtMTYwMSAwIDAgODk0YzAsMTE4IDk2LDIxNCAyMTQsMjE0em03OTAgLTY3Mmw0NTcgMGM2NCwwIDExNSw1MSAxMTUsMTE1IDAsNjQgLTUwLDExNSAtMTE0LDExNWwtNDU4IDBjLTY0LDAgLTExNSwtNTEgLTExNSwtMTE1IDAsLTY0IDUxLC0xMTUgMTE1LC0xMTV6Ii8+DQogIDxwYXRoIGNsYXNzPSJmaWwyIiBkPSJNNzMzIDcyMWMtMzAsLTI4IC02NiwtNTAgLTEwNCwtNjUgMjIsMjggNDAsNjMgNTUsMTAyIDE3LC0xMSAzNCwtMjMgNDksLTM3eiIvPg0KICA8cGF0aCBjbGFzcz0iZmlsMiIgZD0iTTYzNSA3ODRjLTI3LC03OSAtNjgsLTEzNSAtMTE2LC0xNTFsMCAxNzhjNDEsLTIgODAsLTEyIDExNiwtMjd6Ii8+DQogIDxwYXRoIGNsYXNzPSJmaWwyIiBkPSJNNDY3IDgxMWwwIC0xNzhjLTQ4LDE2IC04OSw3MiAtMTE2LDE1MCAzNiwxNiA3NSwyNiAxMTYsMjh6Ii8+DQogIDxwYXRoIGNsYXNzPSJmaWwyIiBkPSJNMzAzIDc1OWMxNSwtNDAgMzMsLTc1IDU0LC0xMDMgLTM4LDE1IC03MywzOCAtMTA0LDY1IDE2LDE0IDMzLDI3IDUwLDM4eiIvPg0KICA8cGF0aCBjbGFzcz0iZmlsMiIgZD0iTTI4NyA4MTJjLTI2LC0xNCAtNTAsLTMyIC03MiwtNTIgLTQ2LDU2IC03NiwxMjcgLTgyLDIwNGwxMzMgMGMxLC01NCA5LC0xMDYgMjEsLTE1MnoiLz4NCiAgPHBhdGggY2xhc3M9ImZpbDIiIGQ9Ik0zMzUgODM2Yy05LDM5IC0xNSw4MyAtMTcsMTI4bDE0OSAwIDAgLTk4Yy00NiwtMyAtOTAsLTEzIC0xMzIsLTMweiIvPg0KICA8cGF0aCBjbGFzcz0iZmlsMiIgZD0iTTUxOSA4NjZsMCA5OCAxNDggMGMtMSwtNDYgLTcsLTg5IC0xNywtMTI4IC00MSwxNyAtODUsMjcgLTEzMSwzMHoiLz4NCiAgPHBhdGggY2xhc3M9ImZpbDIiIGQ9Ik03MDAgODExYzEyLDQ3IDIwLDk4IDIyLDE1M2wxMzEgMGMtNiwtNzcgLTM1LC0xNDggLTgyLC0yMDQgLTIyLDE5IC00NiwzNyAtNzEsNTF6Ii8+DQogIDxwYXRoIGNsYXNzPSJmaWwyIiBkPSJNODUzIDEwMTdsLTEzMSAwYy0yLDU0IC0xMCwxMDUgLTIyLDE1MiAyNSwxNCA0OSwzMSA3MSw1MSA0NiwtNTYgNzYsLTEyNyA4MiwtMjAzeiIvPg0KICA8cGF0aCBjbGFzcz0iZmlsMiIgZD0iTTY1MSAxMTQ0YzksLTM5IDE1LC04MiAxNiwtMTI3bC0xNDggMCAwIDk4YzQ2LDIgOTAsMTIgMTMyLDI5eiIvPg0KICA8cGF0aCBjbGFzcz0iZmlsMiIgZD0iTTQ2NyAxMTE1bDAgLTk4IC0xNDkgMGMyLDQ1IDgsODggMTcsMTI3IDQyLC0xNyA4NiwtMjcgMTMyLC0yOXoiLz4NCiAgPHBhdGggY2xhc3M9ImZpbDIiIGQ9Ik0yODcgMTE2OGMtMTIsLTQ2IC0yMCwtOTcgLTIxLC0xNTFsLTEzMyAwYzYsNzYgMzYsMTQ3IDgyLDIwMyAyMiwtMjAgNDYsLTM3IDcyLC01MnoiLz4NCiAgPHBhdGggY2xhc3M9ImZpbDIiIGQ9Ik0zMDMgMTIyMWMtMTgsMTEgLTM0LDIzIC01MCwzNyAzMSwyOCA2Niw1MCAxMDMsNjUgLTIxLC0yOCAtMzksLTYyIC01MywtMTAyeiIvPg0KICA8cGF0aCBjbGFzcz0iZmlsMiIgZD0iTTM1MCAxMTk2YzI4LDc5IDY5LDEzNSAxMTcsMTUxbDAgLTE4MGMtNDEsMyAtODAsMTMgLTExNywyOXoiLz4NCiAgPHBhdGggY2xhc3M9ImZpbDIiIGQ9Ik01MTkgMTE2N2wwIDE4MGM0OCwtMTYgOTAsLTcyIDExNywtMTUxIC0zNywtMTYgLTc2LC0yNiAtMTE3LC0yOXoiLz4NCiAgPHBhdGggY2xhc3M9ImZpbDIiIGQ9Ik02ODQgMTIyMWMtMTUsNDAgLTMzLDc0IC01NCwxMDIgMzgsLTE1IDczLC0zNyAxMDMsLTY1IC0xNSwtMTQgLTMyLC0yNiAtNDksLTM3eiIvPg0KICA8cGF0aCBjbGFzcz0iZmlsMiIgZD0iTTEwNTcgOTI4Yy04MywwIC04MywxMjUgMCwxMjVsNDU3IDBjODIsMCA4MiwtMTI1IDAsLTEyNWwtNDU3IDB6Ii8+DQogIDxwYXRoIGNsYXNzPSJmaWwzIiBkPSJNNTMgMzg2bDE2MDEgMCAwIC0xMmMwLC0xMTggLTk2LC0yMTQgLTIxNCwtMjE0bC0xMTczIDBjLTExOCwwIC0yMTQsOTYgLTIxNCwyMTRsMCAxMnptOTA3IC0yOWMtNDgsMCAtODUsLTM4IC04NSwtODUgMCwtNDcgMzcsLTg1IDg1LC04NSA0NywwIDg0LDM4IDg0LDg1IDAsNDcgLTM5LDg1IC04NCw4NXptMjA1IDBjLTQ3LDAgLTg1LC0zOCAtODUsLTg1IDAsLTQ3IDM4LC04NSA4NSwtODUgNDcsMCA4NSwzOCA4NSw4NSAwLDQ3IC0zOCw4NSAtODUsODV6bTIwNyAwYy00NywwIC04NSwtMzggLTg1LC04NSAwLC00NyAzOCwtODUgODUsLTg1IDQ3LDAgODUsMzggODUsODUgMCw0NyAtMzksODUgLTg1LDg1eiIvPg0KICA8cGF0aCBjbGFzcz0iZmlsNCIgZD0iTTk2MCAyNDJjLTQxLDAgLTQxLDYxIDAsNjEgNDAsMCA0MCwtNjEgMCwtNjF6Ii8+DQogIDxwYXRoIGNsYXNzPSJmaWw1IiBkPSJNMTE2NSAyNDJjLTQwLDAgLTQwLDYxIDAsNjEgNDAsMCA0MSwtNjEgMCwtNjF6Ii8+DQogIDxwYXRoIGNsYXNzPSJmaWw2IiBkPSJNMTM3MiAyNDJjLTQwLDAgLTQwLDYxIDAsNjEgNDAsMCA0MCwtNjEgMCwtNjF6Ii8+DQogPC9nPg0KPC9zdmc+DQo=;" vertex="1" parent="1">
          <mxGeometry x="100.32000000000002" y="434.33" width="41.35" height="41.35" as="geometry" />
        </mxCell>
        <mxCell id="ea_knz8M6V3I__mRxIHp-11" value="Client" style="text;html=1;strokeColor=none;fillColor=none;align=center;verticalAlign=middle;whiteSpace=wrap;rounded=0;" vertex="1" parent="1">
          <mxGeometry x="91.00000000000003" y="475.00000000000006" width="60" height="30" as="geometry" />
        </mxCell>
        <mxCell id="ea_knz8M6V3I__mRxIHp-13" value="" style="shape=image;aspect=fixed;image=data:image/svg+xml,PHN2ZyBpZD0iTGF5ZXJfMSIgZGF0YS1uYW1lPSJMYXllciAxIiB4bWxucz0iaHR0cDovL3d3dy53My5vcmcvMjAwMC9zdmciIHZpZXdCb3g9IjAgMCA4NC44MSAxMjIuODgiPjxkZWZzPjxzdHlsZT4uY2xzLTF7ZmlsbC1ydWxlOmV2ZW5vZGQ7fTwvc3R5bGU+PC9kZWZzPjx0aXRsZT5zZXJ2ZXI8L3RpdGxlPjxwYXRoIGNsYXNzPSJjbHMtMSIgZD0iTTcyLjcyLDY4LjA5SDM2LjM2QTIuMDgsMi4wOCwwLDAsMSwzNC4yOCw2NlY1NC43MmEyLjA4LDIuMDgsMCwwLDEsMi4wOC0yLjA4SDcyLjcyYTIuMDgsMi4wOCwwLDAsMSwyLjA4LDIuMDhWNjZhMi4wOCwyLjA4LDAsMCwxLTIuMDgsMi4wOFpNNjEuNjcsMjFINTguMzZWMTIuNDhoMy4zMVYyMVptOS44MiwwSDY4LjE4VjEyLjQ4aDMuMzFWMjFabS0zMS41Ny4zNGE0LjYyLDQuNjIsMCwxLDEsNC42Mi00LjYxLDQuNjEsNC42MSwwLDAsMS00LjYyLDQuNjFaTTAsMTA3Ljg3SDBBMi40NCwyLjQ0LDAsMCwwLDEuNDIsMTEwbDI0LjA2LDEyLjQzYTIuMzUsMi4zNSwwLDAsMCwxLjEuMjdoLjE0bDU1Ljc4LjE3YTIuMzMsMi4zMywwLDAsMCwyLjMxLTIuMzNoMFYyLjMyaDBBMi4zMiwyLjMyLDAsMCwwLDgyLjUsMGgtNTZMMS4yNCwxM0EyLjMyLDIuMzIsMCwwLDAsMCwxNS4wN0gwdjkyLjhaTTQuNjYsMTYuNTksMjQuMjUsNi4yMlYxMTYuNjZMNC42NSwxMDYuNDJjMC0yOS41OSwwLTYwLjI0LDAtODkuODNaTTI4LjksNC42NUg4MC4xOFYxMTguMjRsLTUxLjI4LS4xOFY0LjY1Wk03Mi43Miw0Ni4yN0gzNi4zNmEyLjA4LDIuMDgsMCwwLDEtMi4wOC0yLjA4VjMyLjlhMi4wOCwyLjA4LDAsMCwxLDIuMDgtMi4wOEg3Mi43MmEyLjA4LDIuMDgsMCwwLDEsMi4wOCwyLjA4VjQ0LjE4YTIuMDksMi4wOSwwLDAsMS0yLjA4LDIuMDlabS0zMy01Ljg1YTEuODgsMS44OCwwLDEsMSwxLjg4LTEuODgsMS44OCwxLjg4LDAsMCwxLTEuODgsMS44OFptMTUuODEsMS4ySDUzLjE1VjM1LjQ3aDIuMzd2Ni4xNVptNy4wNiwwSDYwLjIxVjM1LjQ3aDIuMzd2Ni4xNVptNy4wNiwwSDY3LjI3VjM1LjQ3aDIuMzd2Ni4xNVptMy4wOCw3MC4xMUgzNi4zNmEyLjA4LDIuMDgsMCwwLDEtMi4wOC0yLjA4Vjk4LjM2YTIuMDksMi4wOSwwLDAsMSwyLjA4LTIuMDhINzIuNzJhMi4wOCwyLjA4LDAsMCwxLDIuMDgsMi4wOHYxMS4yOWEyLjA4LDIuMDgsMCwwLDEtMi4wOCwyLjA4Wm0tMzMtNS44NEExLjg5LDEuODksMCwxLDEsNDEuNTksMTA0YTEuODgsMS44OCwwLDAsMS0xLjg4LDEuODhabTE1LjgxLDEuMTlINTMuMTV2LTYuMTVoMi4zN3Y2LjE1Wm03LjA2LDBINjAuMjF2LTYuMTVoMi4zN3Y2LjE1Wm03LjA2LDBINjcuMjd2LTYuMTVoMi4zN3Y2LjE1Wm0zLjA4LTE3LjE3SDM2LjM2YTIuMDgsMi4wOCwwLDAsMS0yLjA4LTIuMDhWNzYuNTRhMi4wOSwyLjA5LDAsMCwxLDIuMDgtMi4wOEg3Mi43MmEyLjA4LDIuMDgsMCwwLDEsMi4wOCwyLjA4Vjg3LjgzYTIuMDgsMi4wOCwwLDAsMS0yLjA4LDIuMDhabS0zMy01Ljg0YTEuODksMS44OSwwLDEsMSwxLjg4LTEuODksMS44OCwxLjg4LDAsMCwxLTEuODgsMS44OVptMTUuODEsMS4xOUg1My4xNVY3OS4xMWgyLjM3djYuMTVabTcuMDYsMEg2MC4yMVY3OS4xMWgyLjM3djYuMTVabTcuMDYsMEg2Ny4yN1Y3OS4xMWgyLjM3djYuMTVabS0yOS45My0yM2ExLjg5LDEuODksMCwxLDEsMS44OC0xLjg5LDEuODksMS44OSwwLDAsMS0xLjg4LDEuODlabTE1LjgxLDEuMTlINTMuMTVWNTcuMjloMi4zN3Y2LjE1Wm03LjA2LDBINjAuMjFWNTcuMjloMi4zN3Y2LjE1Wm03LjA2LDBINjcuMjdWNTcuMjloMi4zN3Y2LjE1WiIvPjwvc3ZnPg==;" vertex="1" parent="1">
          <mxGeometry x="259.33000000000004" y="377.69" width="88.27" height="127.31" as="geometry" />
        </mxCell>
        <mxCell id="ea_knz8M6V3I__mRxIHp-14" value="Application Server" style="text;html=1;strokeColor=none;fillColor=none;align=center;verticalAlign=middle;whiteSpace=wrap;rounded=0;" vertex="1" parent="1">
          <mxGeometry x="242.61000000000004" y="510" width="121.73" height="35.37" as="geometry" />
        </mxCell>
        <mxCell id="ea_knz8M6V3I__mRxIHp-18" value="" style="endArrow=classic;html=1;rounded=0;exitX=1;exitY=0.5;exitDx=0;exitDy=0;entryX=0;entryY=0.5;entryDx=0;entryDy=0;" edge="1" parent="1" source="CfccMLyii2oI4sjfGrXo-5" target="VtB4CXar6x7eSkOAjALX-4">
          <mxGeometry width="50" height="50" relative="1" as="geometry">
            <mxPoint x="131" y="430" as="sourcePoint" />
            <mxPoint x="181" y="380" as="targetPoint" />
          </mxGeometry>
        </mxCell>
        <mxCell id="ea_knz8M6V3I__mRxIHp-19" value="" style="endArrow=classic;html=1;rounded=0;exitX=1;exitY=0.5;exitDx=0;exitDy=0;entryX=0;entryY=0.5;entryDx=0;entryDy=0;" edge="1" parent="1" source="ea_knz8M6V3I__mRxIHp-10" target="VtB4CXar6x7eSkOAjALX-4">
          <mxGeometry width="50" height="50" relative="1" as="geometry">
            <mxPoint x="152" y="331" as="sourcePoint" />
            <mxPoint x="253" y="400" as="targetPoint" />
          </mxGeometry>
        </mxCell>
        <mxCell id="ea_knz8M6V3I__mRxIHp-20" value="" style="endArrow=none;dashed=1;html=1;dashPattern=1 3;strokeWidth=2;rounded=0;" edge="1" parent="1">
          <mxGeometry width="50" height="50" relative="1" as="geometry">
            <mxPoint x="121" y="422" as="sourcePoint" />
            <mxPoint x="121" y="377" as="targetPoint" />
          </mxGeometry>
        </mxCell>
        <mxCell id="ea_knz8M6V3I__mRxIHp-21" value="" style="endArrow=classic;startArrow=none;html=1;rounded=0;exitX=1;exitY=0.5;exitDx=0;exitDy=0;entryX=0;entryY=0.5;entryDx=0;entryDy=0;entryPerimeter=0;startFill=0;" edge="1" parent="1" source="VtB4CXar6x7eSkOAjALX-4" target="VtB4CXar6x7eSkOAjALX-2">
          <mxGeometry width="50" height="50" relative="1" as="geometry">
            <mxPoint x="441" y="370" as="sourcePoint" />
            <mxPoint x="491" y="320" as="targetPoint" />
          </mxGeometry>
        </mxCell>
        <mxCell id="ea_knz8M6V3I__mRxIHp-22" value="" style="endArrow=classic;startArrow=none;html=1;rounded=0;exitX=1;exitY=0.5;exitDx=0;exitDy=0;startFill=0;" edge="1" parent="1" source="VtB4CXar6x7eSkOAjALX-4">
          <mxGeometry width="50" height="50" relative="1" as="geometry">
            <mxPoint x="373" y="400" as="sourcePoint" />
            <mxPoint x="500" y="468" as="targetPoint" />
          </mxGeometry>
        </mxCell>
        <mxCell id="ea_knz8M6V3I__mRxIHp-23" value="" style="shape=curlyBracket;whiteSpace=wrap;html=1;rounded=1;labelPosition=left;verticalLabelPosition=middle;align=right;verticalAlign=middle;size=0.5;" vertex="1" parent="1">
          <mxGeometry x="500.59" y="363.35" width="40" height="209" as="geometry" />
        </mxCell>
      </root>
    </mxGraphModel>
  </diagram>
</mxfile>
